<svg xmlns="http://www.w3.org/2000/svg" width="60" height="60" viewBox="0 0 60 60"><g><g><g><path fill="#427fff" d="M30 0c16.569 0 30 13.43 30 30 0 16.568-13.431 30-30 30C13.431 60 0 46.568 0 30 0 13.43 13.431 0 30 0z"/></g><g><path fill="#fff" d="M30.442 40.257l5.864-5.896a1.045 1.045 0 0 0 0-1.478 1.033 1.033 0 0 0-1.472 0l-4.085 4.105V21.29c0-.583-.468-1.053-1.047-1.053s-1.047.47-1.047 1.053V36.98l-4.085-4.107a1.035 1.035 0 0 0-1.472 0 1.049 1.049 0 0 0 0 1.482l5.864 5.895c.204.204.468.307.74.307.272 0 .536-.095.74-.3z"/></g></g></g></svg>