<svg xmlns="http://www.w3.org/2000/svg" width="47" height="47" viewBox="0 0 47 47"><g><g><path fill="#427fff" d="M39.147 46.084c-.252-.206-.525-.393-.755-.623-3.018-3.01-6.034-6.024-9.04-9.047-.252-.254-.5-.361-.86-.36-7.01.01-14.02.01-21.03.006-3.47-.002-6.296-2.278-7.003-5.647a6.816 6.816 0 0 1-.138-1.384C.312 21.688.308 14.347.317 7.007.322 3.08 3.424-.039 7.343-.043c10.688-.01 21.376-.008 32.064 0 3.53.002 6.406 2.503 6.96 6.01.012.07.052.136.078.204v23.606c-.029.113-.064.225-.086.34-.577 2.958-2.31 4.865-5.201 5.715-.24.07-.483.123-.737.186v.529c0 2.746-.012 5.492.01 8.239.005.61-.183 1.044-.743 1.298h-.54zm-.723-3.456v-.574-6.71c.001-.925.305-1.252 1.214-1.312 2.789-.184 4.795-2.27 4.802-5.081.019-7.297.02-14.594 0-21.891-.007-2.924-2.19-5.099-5.114-5.102-10.63-.013-21.26-.013-31.89 0-2.922.003-5.11 2.18-5.117 5.1-.018 7.297-.008 14.594-.004 21.89 0 1.094.292 2.108.946 2.997 1.101 1.497 2.609 2.115 4.443 2.111 7.102-.014 14.203-.001 21.305-.014.57-.001.99.177 1.39.581 2.525 2.55 5.069 5.081 7.607 7.618.11.11.23.213.418.387zM23.398 5.946c.553.036 1.12.007 1.655.122 1.468.315 2.429 1.603 2.319 3.1-.149 2.021-.337 4.038-.511 6.057-.107 1.24-.234 2.48-.325 3.722-.127 1.76-1.46 3.07-3.155 3.072-1.697.002-3.02-1.293-3.165-3.058-.263-3.2-.554-6.398-.816-9.599-.162-1.979 1.15-3.375 3.14-3.383h.856l.002-.033zm-.008 2.03c-.3 0-.6-.004-.9.001-.74.012-1.138.42-1.096 1.166.044.763.12 1.525.185 2.287.213 2.496.421 4.993.643 7.488.055.62.498 1.045 1.073 1.085.697.049 1.18-.458 1.25-1.29.14-1.644.29-3.287.431-4.931.134-1.554.277-3.108.39-4.664.052-.716-.359-1.126-1.075-1.14-.3-.007-.6-.002-.9-.002zm2.988 19.074a3.005 3.005 0 0 1-3.019 2.99 3.008 3.008 0 0 1-2.977-3.03 3.009 3.009 0 0 1 3.018-2.991 3.006 3.006 0 0 1 2.978 3.031zm-2.004-.032a.998.998 0 0 0-1.007-.986.997.997 0 0 0-.982 1.01c.006.549.463.997 1.007.99.546-.01.988-.465.982-1.014z"/></g></g></svg>