<svg xmlns="http://www.w3.org/2000/svg" width="50" height="50" viewBox="0 0 50 50"><defs><linearGradient id="x441c" x1="25" x2="25" y1="50" y2="0" gradientUnits="userSpaceOnUse"><stop offset="0" stop-color="#427fff"/><stop offset="1" stop-color="#739fff"/></linearGradient><filter id="x441a" width="200%" height="200%" x="-50%" y="-50%"><feGaussianBlur in="SourceGraphic" result="FeGaussianBlur1067Out" stdDeviation="5 5"/></filter><mask id="x441b"><path fill="#fff" d="M25 0c13.807 0 25 11.194 25 25 0 13.807-11.193 24.998-25 24.998S0 38.808 0 24.999C0 11.194 11.193 0 25 0z"/></mask><filter id="x441d" width="200%" height="200%" x="-50%" y="-50%"><feGaussianBlur in="SourceGraphic" result="FeGaussianBlur1074Out" stdDeviation="2.5 2.5"/></filter><mask id="x441e"><path fill="#fff" d="M25 0c13.807 0 25 11.194 25 25 0 13.807-11.193 24.998-25 24.998S0 38.808 0 24.999C0 11.194 11.193 0 25 0z"/></mask></defs><g><g><g><path fill="#fff" fill-opacity=".1" d="M-10 60v-70h70v70zM0 25c0 13.807 11.193 24.998 25 24.998s25-11.19 25-24.999C50 11.194 38.807 0 25 0S0 11.194 0 25z" filter="url(#x441a)" mask="url(&quot;#x441b&quot;)"/><path fill="url(#x441c)" d="M25 0c13.807 0 25 11.194 25 25 0 13.807-11.193 24.998-25 24.998S0 38.808 0 24.999C0 11.194 11.193 0 25 0z"/><path fill="#fff" fill-opacity=".1" d="M-10 60v-70h70v70zM0 25c0 13.807 11.193 24.998 25 24.998s25-11.19 25-24.999C50 11.194 38.807 0 25 0S0 11.194 0 25z" filter="url(#x441a)" mask="url(&quot;#x441b&quot;)"/><path fill="#fff" fill-opacity=".05" d="M-5 58V-8h60v66zm5-36c0 13.807 11.193 24.998 25 24.998s25-11.19 25-24.999C50 8.194 38.807-3 25-3S0 8.194 0 22z" filter="url(#x441d)" mask="url(&quot;#x441e&quot;)"/></g><g><path fill="none" stroke="#fff" stroke-linecap="round" stroke-miterlimit="20" stroke-width="3" d="M19.244 24.987v0l3.6 3.599v0l7.92-7.92v0"/></g></g></g></svg>