<svg xmlns="http://www.w3.org/2000/svg" width="20" height="20" viewBox="0 0 20 20"><g><g><path fill="#427fff" d="M14.351 6.954c.3.3.3.787 0 1.088l-5.16 5.16c-.3.299-.787.299-1.088 0l-2.456-2.456A.769.769 0 1 1 6.735 9.66l1.912 1.91 4.617-4.615c.3-.3.787-.3 1.087 0zm5.34 3.2A9.84 9.84 0 0 1 9.845 20 9.84 9.84 0 0 1 0 10.154 9.84 9.84 0 0 1 9.845.31a9.84 9.84 0 0 1 9.846 9.845zm-1.539 0a8.303 8.303 0 0 0-8.307-8.307 8.303 8.303 0 0 0-8.307 8.307 8.302 8.302 0 0 0 8.307 8.307 8.301 8.301 0 0 0 8.307-8.307z"/></g></g></svg>