<svg xmlns="http://www.w3.org/2000/svg" width="36" height="36" viewBox="0 0 36 36"><defs><linearGradient id="ew7dc" x1="18" x2="18" y1="36" y2="0" gradientUnits="userSpaceOnUse"><stop offset="0" stop-color="#427fff"/><stop offset="1" stop-color="#739fff"/></linearGradient><filter id="ew7da" width="200%" height="200%" x="-50%" y="-50%"><feGaussianBlur in="SourceGraphic" result="FeGaussianBlur1118Out" stdDeviation="5 5"/></filter><mask id="ew7db"><path fill="#fff" d="M18 0c9.941 0 18 8.06 18 18s-8.059 18-18 18S0 27.94 0 18 8.059 0 18 0z"/></mask><filter id="ew7dd" width="200%" height="200%" x="-50%" y="-50%"><feGaussianBlur in="SourceGraphic" result="FeGaussianBlur1125Out" stdDeviation="2.5 2.5"/></filter><mask id="ew7de"><path fill="#fff" d="M18 0c9.941 0 18 8.06 18 18s-8.059 18-18 18S0 27.94 0 18 8.059 0 18 0z"/></mask></defs><g><g><g><path fill="#fff" fill-opacity=".1" d="M-10 46v-56h56v56zM0 18c0 9.94 8.059 18 18 18s18-8.06 18-18S27.941 0 18 0 0 8.06 0 18z" filter="url(#ew7da)" mask="url(&quot;#ew7db&quot;)"/><path fill="url(#ew7dc)" d="M18 0c9.941 0 18 8.06 18 18s-8.059 18-18 18S0 27.94 0 18 8.059 0 18 0z"/><path fill="#fff" fill-opacity=".1" d="M-10 46v-56h56v56zM0 18c0 9.94 8.059 18 18 18s18-8.06 18-18S27.941 0 18 0 0 8.06 0 18z" filter="url(#ew7da)" mask="url(&quot;#ew7db&quot;)"/><path fill="#fff" fill-opacity=".05" d="M-5 44V-8h46v52zm5-29c0 9.94 8.059 18 18 18s18-8.06 18-18S27.941-3 18-3 0 5.06 0 15z" filter="url(#ew7dd)" mask="url(&quot;#ew7de&quot;)"/></g><g><path fill="#fff" d="M26.242 21.598A4.252 4.252 0 0 1 24.24 24.2l-1.51.866a4.287 4.287 0 0 1-3.272.426l-7.142-1.913c-.627-.169-1-.812-.833-1.437a1.754 1.754 0 0 1 1.896-1.276l3.186.343-3.78-6.519a1.487 1.487 0 0 1 .545-2.036 1.506 1.506 0 0 1 2.052.545l.984 1.697c.126-.207.303-.383.527-.513a1.51 1.51 0 0 1 1.94.38 1.502 1.502 0 0 1 2.475-.144 1.505 1.505 0 0 1 2.586.019l2.013 3.88c.494.952.613 2.046.336 3.079zm-.757-.203a3.5 3.5 0 0 0-.274-2.519l-2.005-3.864a.716.716 0 0 0-.966-.244.708.708 0 0 0-.265.975l.023.04a.389.389 0 0 1-.142.533.392.392 0 0 1-.53-.134h-.001v-.001h-.001v-.002h-.001l-.001-.001-.582-1.004a.718.718 0 0 0-.975-.261.712.712 0 0 0-.266.975l.58.997a.392.392 0 1 1-.678.391l-1.136-1.955a.716.716 0 0 0-1.24.712l1.134 1.955a.39.39 0 0 1-.142.534.393.393 0 0 1-.536-.143l-2.778-4.789a.708.708 0 0 0-.434-.332.708.708 0 0 0-.542.07.71.71 0 0 0-.265.974l4.167 7.182a.39.39 0 0 1-.38.584l-3.959-.423a.967.967 0 0 0-1.05.702.391.391 0 0 0 .277.478l7.143 1.915c.91.243 1.86.12 2.676-.349l1.51-.866a3.48 3.48 0 0 0 1.639-2.13zm-8.249-7.56a.39.39 0 0 1-.45-.323 2.749 2.749 0 0 0-1.995-2.203 2.741 2.741 0 0 0-3.359 1.929 2.737 2.737 0 0 0 .92 2.821.391.391 0 1 1-.496.605 3.524 3.524 0 0 1-1.181-3.63 3.525 3.525 0 0 1 4.318-2.479 3.533 3.533 0 0 1 2.567 2.832.388.388 0 0 1-.324.448z"/></g></g></g></svg>