<svg xmlns="http://www.w3.org/2000/svg" width="50" height="50" viewBox="0 0 50 50"><g><g><path d="M50.047 46.677v.977C49.71 48.88 48.926 49.662 47.7 50h-.978c-.355-.154-.709-.313-1.069-.456a.388.388 0 0 0-.268 0c-.34.143-.673.302-1.008.456h-1.076c-.336-.151-.67-.313-1.012-.45a.455.455 0 0 0-.31.017c-.345.134-.683.287-1.024.433h-.977c-.356-.154-.709-.313-1.069-.456a.389.389 0 0 0-.268 0c-.34.143-.674.302-1.01.456h-1.074c-.337-.151-.67-.313-1.012-.45a.464.464 0 0 0-.31.017c-.345.134-.683.288-1.024.433h-.978c-.355-.154-.708-.313-1.068-.456a.38.38 0 0 0-.268.001c-.34.142-.674.3-1.01.455h-1.075c-.336-.151-.669-.315-1.011-.452-.088-.036-.217-.017-.31.02-.345.133-.684.287-1.025.432h-.977c-.356-.154-.708-.315-1.068-.458a.39.39 0 0 0-.269.003c-.34.144-.673.3-1.01.455H23.07c-.337-.154-.67-.311-1.011-.453a.4.4 0 0 0-.27-.006c-.358.144-.71.303-1.065.46h-.978c-.355-.157-.707-.316-1.067-.459a.382.382 0 0 0-.269.005c-.34.142-.674.299-1.01.453h-1.075c-.023-.023-.043-.06-.07-.064-2.01-.458-2.794-2.74-1.81-4.273.052-.081.086-.234.044-.3-.492-.769-.552-1.6-.335-2.508-.823.195-1.581.194-2.274-.215-.264-.157-.441-.123-.7.008-1.09.547-2.147.449-3.113-.3-.891-.69-1.254-1.898-.939-2.989.112-.384.062-1.408.005-1.822-.075-.55-.07-1.111-.1-1.67-.725.185-1.479.161-2.176-.244-.239-.14-.404-.14-.651-.004-1.577.858-3.467.107-4.06-1.593-.042-.12-.097-.233-.145-.348V32.6c.153-.335.315-.668.452-1.01.035-.087.017-.216-.02-.31-.134-.345-.286-.685-.432-1.026v-.979c.146-.34.298-.679.433-1.025.036-.093.054-.221.019-.308-.138-.343-.3-.675-.452-1.01v-1.076c.153-.335.315-.669.453-1.011.035-.088.015-.214-.021-.307C.297 24.19.145 23.852 0 23.51v-.976c.146-.343.299-.681.433-1.027a.465.465 0 0 0 .018-.31c-.137-.341-.299-.673-.451-1.01v-1.075c.153-.336.316-.667.453-1.01.035-.088.015-.214-.021-.308-.135-.347-.287-.687-.432-1.028v-.978c.146-.34.3-.68.434-1.027a.46.46 0 0 0 .017-.309c-.137-.34-.299-.673-.451-1.01v-1.074c.153-.335.313-.668.456-1.01a.389.389 0 0 0 .001-.268c-.143-.36-.303-.715-.457-1.068v-.979c.146-.34.3-.679.434-1.023a.464.464 0 0 0 .016-.31C.313 7.367.152 7.035 0 6.697V5.624c.154-.335.314-.669.457-1.01a.388.388 0 0 0 0-.268C.315 3.986.155 3.631 0 3.277V2.3C.338 1.073 1.12.29 2.346-.047h.977c.356.154.71.313 1.07.455a.378.378 0 0 0 .267 0C5 .266 5.334.107 5.67-.047h1.075c.336.152.669.313 1.012.45a.472.472 0 0 0 .31-.016C8.411.252 8.75.101 9.09-.047h.977c.356.154.709.313 1.068.456a.388.388 0 0 0 .269-.001c.34-.142.673-.301 1.009-.455h1.075c.337.152.67.313 1.012.45.088.036.216.019.31-.017.345-.134.683-.287 1.024-.433h.978c.355.154.708.313 1.067.456.079.031.191.031.269-.001.34-.144.674-.301 1.01-.455h1.075c.336.152.669.313 1.011.45.088.036.216.017.31-.017.345-.136.683-.287 1.025-.433h.977c.355.154.708.313 1.068.458.078.03.19.03.268-.005.34-.142.674-.3 1.01-.453h1.075c.337.154.67.314 1.011.451.088.036.216.016.31-.02.345-.134.684-.285 1.025-.431h.978c.341.146.68.297 1.026.431.093.034.221.056.308.02.343-.137.676-.297 1.012-.451h1.075c.023.021.043.057.07.064 2.017.46 2.79 2.75 1.807 4.273-.05.08-.082.234-.04.3.492.77.547 1.602.336 2.504.803-.185 1.55-.2 2.228.2.299.177.503.13.789-.01 1.02-.506 2.029-.433 2.95.236.943.682 1.41 1.688 1.087 2.779-.254.858-.305 1.58.02 2.41.158.4.027.915.027 1.38.798-.199 1.582-.138 2.331.3.111.063.333.021.463-.046 1.66-.878 3.56-.113 4.144 1.675.029.089.074.173.112.259v1.075c-.153.336-.312.67-.455 1.01a.392.392 0 0 0-.004.269c.144.358.304.712.459 1.067v.977c-.146.343-.299.68-.434 1.027-.036.093-.053.22-.018.308.137.343.3.676.452 1.013v1.073c-.153.338-.313.67-.455 1.01a.392.392 0 0 0-.004.27c.144.358.304.711.459 1.066v.979c-.146.34-.3.679-.434 1.025a.46.46 0 0 0-.018.308c.137.343.3.677.452 1.013v1.073c-.153.337-.313.67-.456 1.01a.392.392 0 0 0-.003.27c.144.36.305.712.459 1.067v.978c-.146.341-.3.678-.434 1.025a.46.46 0 0 0-.017.309c.137.344.298.676.451 1.012v1.074c-.154.336-.313.67-.456 1.01a.393.393 0 0 0-.002.269c.144.358.304.713.458 1.067v.978c-.146.342-.3.678-.434 1.026a.46.46 0 0 0-.017.308c.137.344.299.676.451 1.013v1.073c-.154.337-.314.67-.456 1.01a.389.389 0 0 0-.001.268c.143.36.303.715.457 1.07zM6.933 9.863c.08-2.211 2.354-3.577 4.281-2.541.221.117.372.156.613.02.922-.514 1.858-.492 2.802-.017.15.075.403.08.551.005.943-.479 1.866-.479 2.812-.01.152.073.404.089.551.013.96-.485 1.898-.49 2.854.007a.626.626 0 0 0 .51 0c.956-.497 1.895-.495 2.853-.004.139.071.375.08.51.008.974-.507 1.928-.502 2.896.012.123.065.343.06.468-.006.97-.513 1.924-.513 2.894.001a.567.567 0 0 0 .47.003 2.99 2.99 0 0 1 1.739-.367c.576.048.726-.081.798-.655.062-.493-.116-.883-.473-1.221-.474-.447-.47-.798-.021-1.246.634-.631.682-1.463.116-2.035-.57-.578-1.405-.54-2.033.093-.445.45-.806.452-1.249.007-.688-.69-1.437-.69-2.128.006-.439.44-.8.436-1.25-.017-.676-.681-1.438-.673-2.13.022-.424.425-.798.428-1.217.01-.722-.72-1.438-.72-2.16 0-.42.42-.792.415-1.217-.01-.692-.697-1.454-.703-2.132-.02-.446.451-.81.456-1.25.012-.69-.694-1.439-.694-2.128-.003-.442.447-.8.444-1.248-.008-.68-.683-1.442-.678-2.132.017-.436.438-.799.433-1.249-.023-.662-.667-1.437-.669-2.096-.005-.466.47-.81.469-1.281-.005-.654-.659-1.437-.654-2.1.013-.448.453-.81.458-1.249.018-.64-.643-1.448-.688-2.028-.115-.583.578-.545 1.396.095 2.029.447.445.448.808.002 1.25-.69.685-.689 1.445.003 2.132.444.44.44.8-.01 1.248-.672.667-.678 1.44-.017 2.097.474.47.476.816.007 1.28-.664.658-.664 1.44 0 2.099.47.467.469.81-.006 1.282-.647.642-.655 1.432-.021 2.063.5.5.503.826.011 1.313-.639.636-.641 1.435-.006 2.068.498.497.498.818 0 1.313-.637.633-.633 1.424.01 2.064.491.488.486.806-.02 1.314-.615.615-.619 1.422-.01 2.034.525.53.526.824.004 1.346-.613.614-.611 1.413.006 2.03.517.516.513.81-.016 1.346-.573.578-.593 1.414-.047 1.97.541.547 1.397.539 1.97-.02.573-.561.817-.561 1.38-.007.43.424 1.003.546 1.525.327.25-.102.376-.225.32-.548-.116-.657.002-1.29.332-1.887.072-.13.062-.372-.01-.508-.49-.96-.491-1.899.007-2.854a.639.639 0 0 0 0-.51c-.498-.957-.495-1.894-.008-2.853.075-.147.06-.4-.015-.553-.467-.946-.469-1.87.012-2.812a.697.697 0 0 0-.006-.55c-.475-.945-.472-1.868 0-2.813a.706.706 0 0 0 .004-.553c-.476-.942-.48-1.864-.008-2.81.076-.153.088-.405.014-.552-.49-.96-.488-1.897.006-2.852.07-.137.048-.355.001-.514-.134-.462-.302-.915-.456-1.368zm31.85 4.649c.598-.391 1.222-.586 1.917-.516.627.065.888-.126.833-.76a2.091 2.091 0 0 0-.45-1.075c-.443-.538-.482-.835.013-1.33.593-.591.62-1.448.06-2-.557-.553-1.405-.517-2 .081-.468.476-.822.479-1.284.013-.664-.667-1.439-.668-2.1 0-.466.469-.802.466-1.28-.016-.644-.643-1.432-.646-2.068-.007-.492.496-.822.495-1.318-.002-.637-.637-1.425-.633-2.067.012-.475.479-.813.48-1.28.01-.662-.664-1.44-.662-2.1.006-.446.449-.817.455-1.252.02-.698-.698-1.448-.7-2.133-.01-.443.446-.801.445-1.249-.004-.671-.674-1.44-.684-2.1-.018-.467.472-.821.473-1.284.009-.662-.669-1.437-.667-2.1.001-.45.454-.81.458-1.248.02-.696-.697-1.444-.7-2.133-.007-.44.444-.807.442-1.251-.003-.62-.623-1.473-.66-2.034-.09-.55.559-.512 1.402.09 1.998.47.466.47.823.004 1.287-.666.66-.664 1.433.006 2.099.452.448.457.81.016 1.25-.696.69-.697 1.439-.002 2.13.441.44.439.809-.008 1.251-.67.667-.677 1.446-.018 2.102.474.47.475.812.004 1.28-.663.657-.659 1.437.01 2.1.463.459.457.811-.02 1.285-.642.637-.645 1.43-.006 2.067.495.495.494.813-.009 1.313-.62.62-.624 1.42-.012 2.035.519.522.52.834.003 1.35-.615.615-.612 1.414.006 2.035.504.505.508.825.015 1.312-.64.639-.64 1.43 0 2.068.491.49.49.824-.009 1.318-.59.589-.613 1.452-.05 2.002.55.536 1.394.51 1.966-.06.52-.517.833-.517 1.352 0 .452.452 1.032.567 1.564.332.242-.106.347-.246.297-.526-.124-.7.007-1.357.379-1.97.047-.078.069-.226.026-.299-.659-1.104-.583-2.192.074-3.254-.716-1.14-.698-2.26.002-3.364-.657-1.058-.721-2.114-.107-3.201.058-.102.018-.304-.045-.423-.502-.952-.5-1.893-.015-2.854a.691.691 0 0 0-.007-.544c-.472-.944-.498-1.882.02-2.802.137-.243.098-.39-.019-.606-.489-.915-.489-1.848.01-2.753.127-.232.127-.379 0-.608a2.809 2.809 0 0 1 .455-3.376c.9-.911 2.255-1.09 3.425-.484a.696.696 0 0 0 .545.003c.62-.315 1.265-.458 1.937-.303.404.095.782.424 1.172.424.389 0 .766-.332 1.17-.424.798-.185 1.538.047 2.198.47 1.064-.655 2.106-.714 3.178-.116.106.06.307.037.423-.025.967-.519 1.922-.517 2.893-.01.127.066.343.082.463.016.985-.528 1.954-.528 2.937.004a.51.51 0 0 0 .424.007c1.075-.595 2.116-.525 3.171.13zm-9.38 17.464c0 5.227 0 10.456.005 15.684 0 .185.002.41.098.553.206.306.87.377 1.32.23.432-.138.48-.437.48-.831-.01-7.46-.008-14.92-.005-22.379 0-.225 0-.46.06-.674.1-.36.379-.524.746-.49.37.032.595.248.644.62.023.175.013.358.013.535 0 7.477 0 14.952.005 22.427 0 .187.006.41.101.553.204.307.865.386 1.316.243.44-.142.514-.436.513-.86-.01-10.392-.008-20.782-.008-31.173 0-.676-.28-.958-.958-.966-.688-.006-.968.266-.968.947v3.518c0 .44.01.879-.006 1.32-.015.45-.274.724-.675.747-.416.024-.726-.254-.777-.705-.015-.13-.008-.262-.008-.391 0-1.549.002-3.094-.004-4.641 0-.156-.006-.339-.085-.462-.194-.299-.868-.405-1.319-.261-.418.13-.496.414-.495.82.012 5.21.008 10.423.008 15.636zm10.119.008v15.684c0 .589.313.87.955.863.638-.01.965-.302.965-.868 0-1.335-.005-2.67.003-4.007.004-.584.389-.927.894-.805.438.107.572.431.57.849-.003 1.352-.003 2.703.003 4.055 0 .156.002.341.082.461.187.282.844.373 1.276.239.424-.131.556-.391.556-.837-.012-10.424-.01-20.848-.01-31.271 0-.605-.327-.902-.987-.9-.651.001-.92.26-.92.883v23.307c0 .758-.221 1.1-.718 1.114-.52.012-.749-.332-.749-1.125V16.317c0-.573-.316-.858-.96-.869-.654-.01-.96.26-.96.85v15.686zm-14.977 0c0-5.227.001-10.455-.004-15.684 0-.184-.008-.408-.107-.545-.214-.304-.878-.37-1.325-.22-.431.144-.468.452-.467.843.008 6.58.006 13.159.004 19.738 0 .212.007.427-.035.632-.078.387-.34.59-.733.575-.393-.017-.636-.235-.681-.634-.023-.193-.015-.39-.015-.584l-.001-19.838c0-.548-.313-.819-.947-.819-.625 0-.974.284-.974.802v31.465c0 .52.346.811.965.816.621.005.956-.279.956-.816l.001-7.181c0-.18-.006-.361.022-.536.055-.35.277-.548.625-.583.366-.034.646.119.753.479.06.2.063.417.063.628.004 2.377.002 4.754.003 7.132 0 .586.31.872.947.877.64.006.95-.276.95-.865V31.984zm1.466.031v15.682c0 .541.322.823.945.834.635.01.981-.285.981-.844v-4.2c0-9.054.001-18.107-.002-27.162 0-.174.01-.374-.067-.516-.167-.308-.846-.44-1.309-.302-.415.126-.56.377-.558.829.017 5.227.01 10.454.01 15.68zm-8.217.005c0-5.26-.007-10.52.01-15.779.002-.464-.207-.647-.587-.745a1.367 1.367 0 0 0-1.548.65c-.304.537-.205 1.192.25 1.658.562.573.564.818.01 1.378-.595.603-.582 1.423.033 2.037.506.506.505.808-.004 1.313-.615.612-.623 1.427-.02 2.032.536.54.537.816.008 1.346-.605.609-.606 1.428-.002 2.036.53.534.53.812-.005 1.347-.59.59-.598 1.407-.019 2 .561.571.563.814.008 1.378-.581.59-.581 1.412 0 2.004.555.565.554.807-.008 1.378-.565.574-.572 1.39-.016 1.967.584.602.585.813.005 1.413-.557.573-.556 1.392.001 1.967.58.6.578.807-.008 1.413-.528.547-.548 1.343-.048 1.898.652.721.652.798.003 1.517a1.374 1.374 0 0 0 1.153 2.295c.59-.067.783-.282.783-.87V32.02zm28.49-.02v8.648c0 2.36.01 4.723-.009 7.085-.003.423.158.625.538.736a1.376 1.376 0 0 0 1.564-.605c.337-.558.248-1.21-.23-1.696-.55-.557-.551-.826-.007-1.38.588-.596.589-1.404.002-2.001-.546-.556-.546-.82.004-1.379.573-.584.582-1.38.02-1.963-.575-.598-.577-.83-.011-1.415.567-.584.57-1.38.007-1.966-.572-.595-.572-.824-.002-1.414.565-.583.562-1.382-.007-1.963-.553-.564-.557-.834-.018-1.38.591-.599.596-1.404.013-2.001-.55-.56-.552-.827-.008-1.379.59-.6.59-1.399-.003-1.999-.541-.545-.539-.811.013-1.378.569-.585.576-1.384.018-1.968-.586-.612-.583-.804.02-1.447.523-.558.524-1.339.004-1.895-.617-.66-.617-.802.007-1.483.416-.455.496-1.049.213-1.583a1.35 1.35 0 0 0-1.385-.71c-.58.074-.743.26-.743.85V32zm-10.127-.036c0 5.228 0 10.458.002 15.687 0 .177-.017.372.052.525.12.266.807.424 1.212.311.41-.116.645-.308.644-.816-.016-10.455-.012-20.912-.012-31.37 0-.573-.327-.858-.972-.855-.634.004-.925.265-.925.836v15.682zM12.156 22.67a.706.706 0 0 1-.785.676.703.703 0 0 1-.654-.756.707.707 0 0 1 .784-.678.704.704 0 0 1 .655.758zm0-11.185a.701.701 0 0 1-.694.72.704.704 0 0 1-.745-.718.702.702 0 0 1 .742-.719c.4.01.696.314.697.717zm2.47-.039a.704.704 0 0 1 .784-.676.703.703 0 0 1 .655.756.705.705 0 0 1-.735.679.705.705 0 0 1-.703-.759zm5.35.016a.704.704 0 0 1-.672.741.705.705 0 0 1-.767-.693.703.703 0 0 1 .719-.742c.401 0 .707.295.72.694zm3.91.065a.705.705 0 0 1-.785.675.702.702 0 0 1-.655-.757.704.704 0 0 1 .784-.675.703.703 0 0 1 .655.757zm3.2.678a.704.704 0 0 1-.73-.73.7.7 0 0 1 .709-.707c.42-.006.737.31.73.73a.702.702 0 0 1-.708.707zm4.62-.717a.703.703 0 0 1-.747.717.703.703 0 0 1-.693-.721.703.703 0 0 1 .746-.716c.4.013.694.32.693.72zm3.909.01a.705.705 0 0 1-.757.707.704.704 0 0 1-.682-.732.703.703 0 0 1 .757-.705c.398.018.689.33.682.73zm3.215-.73a.7.7 0 0 1 .695.717c0 .42-.323.734-.744.72a.705.705 0 0 1-.694-.768.702.702 0 0 1 .743-.669zm-26.674 4.422a.702.702 0 0 1-.685.729.706.706 0 0 1-.754-.709.701.701 0 0 1 .733-.727.7.7 0 0 1 .706.707zm0 22.275a.704.704 0 0 1-.673.74.707.707 0 0 1-.766-.696.706.706 0 0 1 .72-.742.703.703 0 0 1 .719.698zm0-3.71a.704.704 0 0 1-.68.736.705.705 0 0 1-.76-.702.704.704 0 0 1 .728-.736.701.701 0 0 1 .712.701zm-.737-4.414c.42-.011.74.304.737.724a.702.702 0 0 1-.703.712.706.706 0 0 1-.736-.726.7.7 0 0 1 .702-.71zm-.702-10.467c.02-.416.36-.708.783-.676a.704.704 0 0 1 .656.756.705.705 0 0 1-.736.68.706.706 0 0 1-.703-.76zm1.439 7.485a.705.705 0 0 1-.76.702.703.703 0 0 1-.68-.733.705.705 0 0 1 .76-.703.703.703 0 0 1 .68.734z"/></g></g></svg>