<svg xmlns="http://www.w3.org/2000/svg" width="201" height="55" viewBox="0 0 201 55"><g><g><g><path fill="#171717" d="M105.848 45.419h-9.282v-.134c1.147-.298 1.914-.76 2.3-1.389.386-.629.579-1.662.579-3.095V26.505L86.77 42.735c.11.752.37 1.305.778 1.657.408.355 1.086.651 2.035.893v.134h-9.282v-.134c1.147-.298 1.914-.76 2.3-1.389.386-.629.579-1.662.579-3.095V26.637c0-1.422-.193-2.449-.58-3.076-.385-.63-1.152-1.094-2.3-1.392v-.132h9.283v.132c-1.147.298-1.914.762-2.3 1.392-.386.627-.579 1.654-.579 3.076v14.098L99.313 24.57c-.133-.67-.397-1.18-.795-1.521-.397-.344-1.048-.636-1.952-.879v-.132h9.282v.132c-1.147.298-1.914.762-2.3 1.392-.386.627-.579 1.654-.579 3.076v14.164c0 1.424.193 2.455.58 3.095.385.64 1.152 1.102 2.3 1.389zm8.144-1.406c1.333.695 2.472 1.041 3.42 1.041 1.761 0 3.259-.78 4.492-2.343 1.234-1.564 1.85-3.502 1.85-5.813 0-2.312-.583-4.122-1.75-5.432-1.157-1.298-2.5-1.95-4.03-1.95-1.532 0-2.859.346-3.982 1.041zm2.797 9.197h-8.72v-.131c.964-.298 1.616-.76 1.955-1.387.34-.627.51-1.651.51-3.072V34.04c0-1.498-.17-2.532-.51-3.106-.34-.57-1.13-1.073-2.37-1.502v-.137c2.306-.204 4.374-.726 6.205-1.565h.133v2.349c.54-.553 1.35-1.081 2.428-1.59a8.065 8.065 0 0 1 3.47-.76c2.048 0 3.792.755 5.23 2.261 1.44 1.507 2.159 3.49 2.159 5.95 0 1.594-.329 3.044-.986 4.351-.657 1.309-1.5 2.348-2.529 3.116-2.124 1.605-4.303 2.415-6.536 2.426-1.238 0-2.316-.073-3.236-.217v2.996c0 1.444.187 2.474.56 3.093.372.618 1.118 1.076 2.237 1.374zm24.318-7.791h-8.29v-.134c.982-.298 1.638-.762 1.97-1.39.33-.631.496-1.664.496-3.097V29.069h-.91c-1.115 0-1.947.222-2.499.663-.551.442-1.379 1.442-2.482 2.999h-.132l.33-4.585h14.744l.33 4.585h-.132c-1.103-1.557-1.93-2.557-2.482-3-.551-.44-1.384-.662-2.498-.662h-.91v11.729c0 1.424.17 2.457.513 3.097.341.639.992 1.103 1.952 1.39zm15.728-2.302v-6.27c-.843-.178-1.548-.271-2.114-.282-1.248.01-2.236.349-2.965 1.01-.728.663-1.093 1.556-1.093 2.682 0 1.123.33 1.991.988 2.597.637.628 1.466.944 2.487.944 1.021 0 1.92-.227 2.697-.68zm-8.258 1.49c-.848-.804-1.273-1.88-1.273-3.227 0-1.344.748-2.563 2.243-3.652 1.495-1.09 3.924-1.786 7.288-2.089v-1.96c0-1.436-.333-2.601-.999-3.491-.666-.89-1.642-1.327-2.93-1.316a5.167 5.167 0 0 0-1.97.35c-.635.242-1.089.475-1.362.695 1.178.32 1.768.969 1.768 1.943 0 .518-.173.934-.518 1.246-.346.31-.763.466-1.25.466-.488 0-.906-.184-1.253-.547-.347-.354-.515-.762-.504-1.225 0-1.014.78-1.947 2.337-2.796 1.546-.85 3.119-1.274 4.716-1.274 1.598 0 2.885.408 3.86 1.216.976.81 1.464 1.966 1.464 3.467v9.034c0 1.345.309 2.178.927 2.5.617.308 1.417.495 2.399.562v.129c-.364.159-1.02.383-1.97.68-.948.287-1.727.43-2.337.43-.61 0-1.147-.197-1.613-.596-.466-.396-.71-.986-.732-1.77-1.886 1.622-3.533 2.432-4.94 2.432-1.407 0-2.524-.402-3.35-1.207zm34.708.812h-3.524c-1.269 0-2.157-.205-2.664-.614-.508-.407-.987-1.289-1.44-2.646l-.264-.844c-.651-2.03-1.252-3.342-1.804-3.94-.552-.594-1.434-.898-2.647-.91h-.298v4.336c0 1.424.17 2.455.513 3.095.342.64.998 1.102 1.969 1.389v.133h-8.306v-.133c.97-.298 1.626-.76 1.968-1.389.342-.629.508-1.662.497-3.095v-8.058c0-1.422-.166-2.449-.497-3.077-.342-.628-.998-1.092-1.968-1.391v-.13h8.306v.13c-.971.296-1.627.754-1.97 1.379-.341.623-.512 1.639-.512 3.05v2.985h1.059c1.853 0 3.215-1.34 4.087-4.02.849-2.626 2.167-3.94 3.954-3.94.916 0 1.6.239 2.052.711.452.475.678.999.678 1.574 0 .573-.187 1.048-.562 1.422-.364.375-.888.564-1.572.564s-1.203-.304-1.555-.908c-.354-.606-.31-1.368.132-2.286-.816 0-1.655 1.296-2.515 3.889-.496 1.528-1.263 2.549-2.3 3.066v.13c.97.066 1.804.385 2.499.957.694.57 1.362 1.527 2.002 2.867l.777 1.65c.728 1.536 1.302 2.536 1.721 2.997.42.461 1.147.77 2.184.923zm10.518-2.302v-6.27c-.844-.178-1.548-.271-2.114-.282-1.248.01-2.237.349-2.965 1.01-.729.663-1.093 1.556-1.093 2.682 0 1.123.33 1.991.988 2.597.637.628 1.466.944 2.487.944 1.02 0 1.92-.227 2.697-.68zm-8.258 1.49c-.849-.804-1.273-1.88-1.273-3.227 0-1.344.747-2.563 2.243-3.652 1.494-1.09 3.924-1.786 7.288-2.089v-1.96c0-1.436-.333-2.601-1-3.491-.665-.89-1.642-1.327-2.929-1.316a5.167 5.167 0 0 0-1.97.35c-.635.242-1.089.475-1.363.695 1.179.32 1.768.969 1.768 1.943 0 .518-.172.934-.518 1.246-.345.31-.762.466-1.25.466s-.905-.184-1.252-.547c-.347-.354-.515-.762-.504-1.225 0-1.014.779-1.947 2.336-2.796 1.547-.85 3.12-1.274 4.717-1.274 1.598 0 2.884.408 3.86 1.216.976.81 1.464 1.966 1.464 3.467v9.034c0 1.345.308 2.178.926 2.5.618.308 1.417.495 2.4.562v.129c-.365.159-1.021.383-1.97.68-.948.287-1.728.43-2.338.43-.61 0-1.147-.197-1.613-.596-.465-.396-.709-.986-.731-1.77-1.887 1.622-3.533 2.432-4.94 2.432-1.407 0-2.524-.402-3.351-1.207z"/></g><g><path fill="#fca368" d="M50.638.885c12.76 0 23.104 10.344 23.104 23.107 0 12.758-10.344 23.101-23.104 23.101s-23.105-10.343-23.105-23.1C27.533 11.228 37.877.884 50.638.884z"/></g><g><path fill="#171717" d="M10.806 48.952c-.292 1.128-.553 2.242-.872 3.342-.54 1.855-2.552 2.68-4.172 1.73-1.104-.644-1.616-1.867-1.312-3.178a517.28 517.28 0 0 1 1.462-6.168c.08-.327.028-.51-.22-.736-1.436-1.317-2.173-2.957-2.177-4.911-.005-2.367-.009-4.728.005-7.09.003-.385-.077-.614-.462-.807a5.548 5.548 0 0 1-2.95-6.026 5.524 5.524 0 0 1 4.94-4.45c.495-.045.635-.216.678-.692.45-5.018 4.527-8.776 9.56-8.783 10.359-.014 20.718-.011 31.078-.002 5.246.003 9.338 3.84 9.728 9.095.007.102.02.203.034.323.494.056.985.07 1.458.171 2.344.486 4.09 2.34 4.403 4.644.314 2.316-.865 4.618-2.964 5.687-.396.2-.512.42-.51.84.018 2.3-.004 4.602.013 6.903.015 2.047-.667 3.786-2.233 5.124-.314.27-.23.525-.16.816.463 1.893.959 3.78 1.376 5.68.132.605.175 1.28.053 1.876-.256 1.255-1.365 2.083-2.618 2.113-1.287.031-2.44-.752-2.807-1.977-.283-.943-.525-1.9-.727-2.862-.109-.514-.326-.678-.86-.678-5.724.024-11.447.016-17.17.016H10.805zm40.089-15.15v-.732c.011-2.402.039-4.808.03-7.211-.008-1.98.912-3.405 2.552-4.405 1.037-.637 1.065-.659.862-1.857a9.574 9.574 0 0 0-.152-.721c-.917-3.62-4.016-6.005-7.87-6.008-10.297-.009-20.593-.003-30.89-.001-.245 0-.491.01-.737.023-3.9.215-7.182 3.563-7.344 7.47-.017.392.07.614.454.801 2.23 1.092 3.303 2.901 3.283 5.383-.017 2.156-.003 4.316-.003 6.472v.797c1.475-1.45 3.105-2.115 4.993-2.12 3.056-.01 6.112-.022 9.168.003 2.289.016 4.107.983 5.448 2.845.09.126.194.238.323.397 1.591-2.499 3.892-3.35 6.705-3.267 2.644.083 5.292.008 7.937.027.612.003 1.23.062 1.833.17 1.288.225 2.357.898 3.408 1.934zm-19.91 10.136c6.791 0 13.583-.053 20.372.022 3.346.035 5.523-2.433 5.397-5.372-.106-2.46-.023-4.926-.022-7.395 0-.94.083-1.055.975-1.379 1.506-.548 2.521-1.899 2.575-3.43.077-2.154-1.598-3.944-3.736-3.993-2.235-.05-3.993 1.626-3.998 3.846-.008 4.066-.002 8.139-.003 12.207 0 1.025-.204 1.233-1.21 1.233-13.561.002-27.122.002-40.683 0-1.024 0-1.228-.202-1.229-1.216 0-4.087-.004-8.176.003-12.268.002-.802-.164-1.543-.621-2.213-.945-1.38-2.736-2.015-4.344-1.543-1.578.461-2.716 1.954-2.764 3.626-.047 1.635 1.016 3.15 2.615 3.723.82.295.924.435.924 1.29.002 2.568-.012 5.138.01 7.704.005.567.057 1.158.216 1.701.634 2.152 2.525 3.451 4.968 3.451 6.852.01 13.704.006 20.556.006zm-.9-5.943c.108-2.353-2.09-4.573-4.588-4.607-3.24-.04-6.48-.036-9.72 0-2.131.023-3.985 1.569-4.493 3.643-.074.3-.098.618-.151.964h18.951zm1.796.031h18.942c.032-2.437-1.975-4.529-4.54-4.585a229.493 229.493 0 0 0-9.66-.003c-2.656.058-4.483 1.865-4.742 4.588zm18.97 7.673H11.043v1.49H50.85V45.7zm3.58-.467c-.491.127-.935.28-1.392.352-.344.053-.423.204-.433.525-.063 2.048.691 3.935 1.151 5.88.128.542.846.842 1.348.704.565-.158.947-.733.85-1.328-.049-.302-.15-.595-.223-.893-.434-1.743-.866-3.488-1.301-5.24zm-46.84-.09c-.144.604-.275 1.157-.408 1.71-.348 1.45-.707 2.9-1.041 4.356-.167.726.137 1.291.746 1.48.576.177 1.27-.142 1.409-.765.406-1.828 1.075-3.607.999-5.532-.024-.62-.124-.954-.8-.97-.274-.012-.544-.161-.905-.278zm10.475-20.288a1.23 1.23 0 0 1-1.198 1.223c-.665.012-1.258-.58-1.251-1.25.007-.678.585-1.224 1.275-1.206a1.2 1.2 0 0 1 1.174 1.233zm16.48-.014a1.2 1.2 0 0 1 1.202-1.219c.67-.004 1.229.53 1.247 1.192.018.667-.581 1.276-1.25 1.264-.658-.01-1.2-.569-1.2-1.237zM22.99 19.35a1.219 1.219 0 0 1-1.217 1.197c-.673-.001-1.251-.595-1.231-1.261a1.256 1.256 0 0 1 1.234-1.197c.689 0 1.23.562 1.214 1.26zm18.96.027a1.219 1.219 0 0 1-1.243 1.17c-.673-.017-1.24-.623-1.203-1.288a1.26 1.26 0 0 1 1.258-1.172c.688.018 1.217.59 1.189 1.29zm-14.418 5.477c-.006.65-.557 1.21-1.206 1.221-.668.014-1.253-.572-1.247-1.246a1.22 1.22 0 0 1 1.268-1.208c.667.02 1.191.566 1.185 1.233zm4.96-5.53a1.215 1.215 0 0 1-1.204 1.225 1.244 1.244 0 0 1-1.234-1.27 1.24 1.24 0 0 1 1.248-1.192 1.208 1.208 0 0 1 1.19 1.237zm11.513 5.52a1.193 1.193 0 0 1 1.196-1.223 1.225 1.225 0 0 1 1.242 1.19c.017.678-.566 1.277-1.24 1.266-.662-.007-1.197-.56-1.198-1.233z"/></g></g></g></svg>