<svg xmlns="http://www.w3.org/2000/svg" width="22" height="22" viewBox="0 0 22 22"><g><g><path fill="#427fff" d="M19.81 16.233c.461.457.703 1.003.703 1.57 0 .565-.237 1.114-.69 1.587-.196.205-.397.401-.594.588-.287.28-.561.543-.799.83-.005.01-.014.015-.018.023-.695.755-1.58 1.135-2.636 1.135-.091 0-.192-.004-.288-.007-1.567-.102-2.969-.692-4.02-1.192-2.75-1.332-5.157-3.224-7.158-5.618C2.661 13.16 1.556 11.304.816 9.303.514 8.49.12 7.243.23 5.906a3.35 3.35 0 0 1 .991-2.13l1.553-1.572.01-.01c.456-.439.995-.673 1.552-.673.558 0 1.088.234 1.53.673.298.276.586.57.86.853.137.146.283.293.424.434L8.4 4.732c.959.962.959 2.208 0 3.17-.128.129-.256.263-.384.389-.338.344-.685.7-1.06 1.045.279.617.662 1.228 1.233 1.95 1.179 1.453 2.408 2.574 3.76 3.436.132.08.288.16.452.241.114.061.233.12.352.186l1.443-1.444c.462-.463 1-.706 1.563-.706.566 0 1.1.248 1.544.71zm-.877.866l-2.517-2.524-.01-.01c-.141-.155-.374-.334-.657-.334-.288 0-.535.189-.69.344l-1.562 1.566c-.078.08-.316.318-.695.318a.972.972 0 0 1-.452-.117c-.018-.008-.037-.022-.055-.031-.132-.083-.288-.16-.452-.243a6.932 6.932 0 0 1-.562-.305c-1.466-.932-2.796-2.146-4.056-3.702l-.005-.006c-.694-.884-1.151-1.625-1.475-2.414l-.014-.04c-.082-.26-.156-.647.237-1.04.005-.009.014-.013.023-.021.398-.358.763-.724 1.147-1.119.132-.129.26-.261.393-.392.484-.488.484-.937 0-1.423l-1.247-1.25c-.147-.15-.293-.297-.434-.443a24.01 24.01 0 0 0-.836-.834c-.147-.146-.38-.32-.667-.32-.233 0-.47.113-.695.325L2.095 4.645c-.38.38-.585.826-.63 1.36-.07.84.086 1.728.51 2.868.69 1.868 1.732 3.609 3.29 5.49 1.886 2.26 4.157 4.042 6.742 5.296.946.453 2.207.985 3.563 1.072.069.005.142.005.21.005.713 0 1.257-.236 1.718-.728.283-.335.585-.634.882-.918.196-.191.379-.364.557-.557-.004.004-.004 0 0 0 .466-.486.466-.968-.004-1.434zM11.395 4.715a.62.62 0 0 1 .713-.505 7.034 7.034 0 0 1 3.814 1.984 7.066 7.066 0 0 1 1.978 3.823.619.619 0 0 1-.507.715c-.037.005-.068.01-.105.01a.613.613 0 0 1-.608-.515 5.846 5.846 0 0 0-1.635-3.16 5.789 5.789 0 0 0-3.152-1.638.611.611 0 0 1-.498-.714zm9.917 5.83a.613.613 0 0 1-.713-.505 10.387 10.387 0 0 0-2.909-5.629 10.375 10.375 0 0 0-5.614-2.918.62.62 0 0 1-.507-.713.615.615 0 0 1 .708-.505 11.589 11.589 0 0 1 6.28 3.267 11.633 11.633 0 0 1 3.258 6.297.607.607 0 0 1-.503.706z"/></g></g></svg>