<svg xmlns="http://www.w3.org/2000/svg" width="27" height="13" viewBox="0 0 27 13"><g><g><path d="M26.065 6.325L20.635.872a.667.667 0 0 0-.944 0l-.4.402a.672.672 0 0 0 0 .947L23.85 6.8l-4.565 4.582a.67.67 0 0 0 0 .947l.4.404a.667.667 0 0 0 .944 0l5.435-5.458a.667.667 0 0 0 .195-.475.664.664 0 0 0-.195-.475z"/></g><g><path d="M.279 6.325L5.709.872a.667.667 0 0 1 .944 0l.4.402c.26.262.26.685 0 .947L2.493 6.8l4.565 4.582a.67.67 0 0 1 0 .947l-.4.404a.667.667 0 0 1-.944 0L.279 7.275A.667.667 0 0 1 .084 6.8c0-.18.069-.35.195-.475z"/></g></g></svg>