<svg xmlns="http://www.w3.org/2000/svg" width="36" height="37"><path fill="#427fff" d="M36 17.073c-.139.239-.239.515-.425.705-.397.408-.904.518-1.443.32-.55-.204-.852-.623-.91-1.207-.018-.173-.009-.346-.009-.522V9.092c-.002-1.854-1.17-3.02-3.024-3.024h-1.578c0 .492.017.963-.004 1.435-.048 1.087-1.215 1.707-2.127 1.133-.424-.268-.638-.666-.65-1.164-.011-.45-.002-.904-.002-1.379h-6.343v1.072c0 1.044-.524 1.68-1.385 1.687-.873.006-1.403-.637-1.403-1.704V6.09h-6.273c0 .445.008.905-.002 1.363-.014.63-.385 1.139-.947 1.326-.898.296-1.797-.332-1.832-1.295-.017-.458-.003-.92-.003-1.452-.823.042-1.623-.006-2.386.137-1.246.236-2.07 1.321-2.142 2.625-.005.092-.004.186-.004.278v21.312c0 1.208.47 2.16 1.58 2.682.424.2.936.291 1.41.293 3.426.025 6.852.015 10.278.01.45-.001.853.097 1.175.424.67.681.465 1.815-.4 2.228-.103.048-.21.092-.315.139H5.268c-.04-.022-.079-.055-.12-.06-2.622-.316-4.854-2.656-4.839-5.726.036-7.102.01-14.203.017-21.305 0-.438.028-.885.116-1.314.533-2.6 2.738-4.42 5.397-4.47.589-.01 1.178-.001 1.801-.001 0-.495-.014-.958.003-1.42C7.679.906 8.578.28 9.475.575c.562.185.933.694.947 1.323.01.46.002.917.002 1.367h6.273c0-.433-.003-.85 0-1.265.009-.882.59-1.504 1.399-1.5.807.003 1.38.626 1.388 1.51.003.413 0 .828 0 1.252h6.342c0-.424-.002-.83 0-1.233.006-.906.584-1.536 1.404-1.53.807.007 1.376.63 1.383 1.516.003.413 0 .83 0 1.273.688 0 1.337-.03 1.983.006 2.201.12 3.83 1.169 4.823 3.132.282.556.392 1.2.581 1.802v8.846zM26.871 36.16c-.806-.204-1.638-.335-2.413-.62-3.596-1.325-5.88-5.33-5.206-9.1.596-3.339 2.504-5.648 5.716-6.695 3.289-1.07 6.234-.27 8.682 2.178 1.33 1.33 2.062 2.976 2.288 4.844.011.09.041.178.062.266v1.395c-.023.112-.051.22-.069.336-.52 3.33-2.339 5.638-5.48 6.861-.693.27-1.456.36-2.186.535h-1.394zm6.34-8.426c.003-3.105-2.542-5.647-5.648-5.644-3.093.003-5.625 2.527-5.638 5.62-.014 3.101 2.523 5.652 5.63 5.661 3.106.01 5.654-2.532 5.657-5.637zm-24.179-14c.766 0 1.396.632 1.39 1.4a1.398 1.398 0 01-1.409 1.38 1.398 1.398 0 01-1.373-1.382 1.397 1.397 0 011.392-1.399zm7.453 1.372a1.399 1.399 0 01-1.383 1.408 1.398 1.398 0 01-1.4-1.391 1.4 1.4 0 011.367-1.39 1.398 1.398 0 011.416 1.373zm4.664-1.373c.766-.005 1.4.626 1.4 1.391a1.399 1.399 0 01-1.402 1.39 1.398 1.398 0 01-1.381-1.374 1.399 1.399 0 011.383-1.407zm6.063 0c.766-.005 1.4.626 1.399 1.391 0 .767-.635 1.396-1.401 1.39a1.398 1.398 0 01-1.381-1.374 1.399 1.399 0 011.383-1.407zm-16.79 7.435a1.397 1.397 0 01-1.383 1.405 1.396 1.396 0 01-1.399-1.391 1.4 1.4 0 011.366-1.39 1.4 1.4 0 011.417 1.376zm4.67 1.405a1.397 1.397 0 01-1.389-1.4 1.399 1.399 0 011.412-1.381 1.4 1.4 0 011.37 1.387 1.397 1.397 0 01-1.394 1.394zm-6.077 6.062a1.401 1.401 0 01-1.375-1.418 1.4 1.4 0 011.426-1.365 1.4 1.4 0 011.357 1.4 1.4 1.4 0 01-1.408 1.383zm6.065 0a1.402 1.402 0 01-1.377-1.415 1.4 1.4 0 011.422-1.368 1.4 1.4 0 011.36 1.396 1.4 1.4 0 01-1.405 1.387zm13.88-2.295c.257 0 .465-.01.672.002.773.039 1.356.65 1.348 1.403a1.375 1.375 0 01-1.343 1.37 32.11 32.11 0 01-2.121 0 1.35 1.35 0 01-1.333-1.34 65.498 65.498 0 010-2.954 1.37 1.37 0 011.377-1.337 1.385 1.385 0 011.396 1.354c.018.486.003.97.003 1.502z"/></svg>