<svg xmlns="http://www.w3.org/2000/svg" width="52" height="51"><path d="M0 21.547c.084-.3.154-.609.255-.903.643-1.882 1.939-3.077 3.857-3.578.312-.08.388-.197.397-.496.056-1.918.094-3.838.213-5.75.126-2.03.863-3.857 2.082-5.486.328-.438.76-.527 1.123-.257.351.261.415.693.106 1.106C6.816 7.815 6.22 9.65 6.157 11.676c-.054 1.732-.126 3.463-.19 5.232.286.067.526.115.759.185 1.943.576 3.228 1.83 3.79 3.775.3 1.034.518 2.092.773 3.14.733-.387 1.449-.813 2.202-1.154 2.63-1.193 5.426-1.746 8.282-1.983 3.893-.324 7.775-.232 11.616.572 2.285.476 4.477 1.198 6.443 2.5.053.036.115.056.2.097.176-.767.362-1.502.51-2.247.527-2.633 2.004-4.343 4.73-4.862 0-.918.038-1.832-.009-2.742-.074-1.447-.059-2.921-.34-4.333-.832-4.181-4.25-7.006-8.577-7.207a235.06 235.06 0 00-21.338-.004c-1.72.077-3.317.539-4.764 1.489-.515.338-.97.277-1.22-.134-.245-.404-.107-.785.404-1.123 1.702-1.125 3.588-1.649 5.616-1.737a233.92 233.92 0 0118.784-.09c1.697.06 3.406.021 5.075.468 4.292 1.156 7.484 5.059 7.707 9.499.094 1.848.137 3.7.2 5.551.008.218-.017.402.292.48 2.298.58 3.679 2.045 4.141 4.37.01.045.047.086.071.13v1.4c-.234 1.276-.46 2.555-.705 3.83-.658 3.422-1.477 6.803-2.616 10.1-.26.755-.62 1.028-1.108.848-.475-.174-.574-.588-.322-1.318 1.539-4.457 2.51-9.051 3.217-13.702.295-1.943-1.06-3.765-3.039-4.208-1.893-.427-3.917.692-4.427 2.611-.474 1.783-.787 3.61-1.113 5.428-.438 2.446-2.809 4.218-5.27 3.858-5.696-.837-11.41-.893-17.138-.418-1.063.089-2.12.265-3.18.388-3 .35-5.185-1.408-5.6-4.387a43.116 43.116 0 00-.947-4.697c-.518-2.027-2.545-3.228-4.512-2.778-2.081.474-3.313 2.334-2.98 4.47.733 4.716 1.731 9.37 3.337 13.876.14.393.29.78.44 1.167.399 1.02 1.138 1.627 2.217 1.804 5.456.902 10.934 1.599 16.47 1.742 4.602.118 9.176-.268 13.734-.868 1.918-.252 3.836-.519 5.742-.853.584-.103 1.148-.409 1.678-.698.466-.256.886-.28 1.158.076.264.346.191.756-.198 1.1-.715.632-1.575.917-2.502 1.044-.23.03-.458.078-.73.126.104.92.236 1.821.303 2.728.137 1.86.253 3.725.35 5.588.038.735-.241.988-.986.99-1.303.003-2.606.004-3.909 0-.672-.002-.858-.188-.996-.86-.482-2.351-.987-4.696-1.452-7.049-.08-.408-.257-.452-.606-.422-2.28.19-4.558.397-6.84.534-3.14.192-6.277.072-9.41-.182-1.379-.11-2.755-.25-4.19-.383-.288 1.327-.579 2.624-.847 3.924-.253 1.223-.481 2.453-.723 3.679-.11.56-.342.755-.932.757-1.32.006-2.64.005-3.96.001-.743-.001-1.033-.253-.98-.99.188-2.66.411-5.316.622-7.976.008-.098.021-.194.037-.333-.37-.067-.727-.14-1.084-.2-1.68-.288-2.791-1.25-3.405-2.824-1.348-3.457-2.276-7.034-3-10.666C.605 26.27.36 24.721.084 23.181c-.014-.08-.055-.155-.084-.233v-1.4zm25.669.664c-3-.01-5.97.238-8.873 1.04-1.763.488-3.446 1.161-4.92 2.269-.149.114-.32.336-.31.495.113 1.753 1.841 3.115 3.601 2.91 1.89-.22 3.779-.464 5.675-.587 5.062-.327 10.112-.193 15.138.552 1.82.27 3.383-.85 3.748-2.655.073-.358-.027-.547-.302-.745-1.106-.797-2.313-1.392-3.597-1.833-3.292-1.14-6.706-1.438-10.16-1.446zM9.832 41.716l-.656 7.549H12.2l1.468-7.025-3.835-.524zm32.311 7.561l-.668-7.56c-1.363.19-2.577.356-3.83.53l1.473 7.03h3.025z"/></svg>