<svg xmlns="http://www.w3.org/2000/svg" width="36" height="36"><defs><filter id="ew7da" width="200%" height="200%" x="-50%" y="-50%"><feGaussianBlur in="SourceGraphic" result="FeGaussianBlur1118Out" stdDeviation="5 5"/></filter><filter id="ew7dd" width="200%" height="200%" x="-50%" y="-50%"><feGaussianBlur in="SourceGraphic" result="FeGaussianBlur1125Out" stdDeviation="2.5 2.5"/></filter><mask id="ew7db"><path fill="#fff" d="M18 0c9.941 0 18 8.06 18 18s-8.059 18-18 18S0 27.94 0 18 8.059 0 18 0z"/></mask><mask id="ew7de"><path fill="#fff" d="M18 0c9.941 0 18 8.06 18 18s-8.059 18-18 18S0 27.94 0 18 8.059 0 18 0z"/></mask><linearGradient id="ew7dc" x1="18" x2="18" y1="36" y2="0" gradientUnits="userSpaceOnUse"><stop offset="0" stop-color="#427fff"/><stop offset="1" stop-color="#739fff"/></linearGradient></defs><path fill="#fff" fill-opacity=".1" d="M-10 46v-56h56v56zM0 18c0 9.94 8.059 18 18 18s18-8.06 18-18S27.941 0 18 0 0 8.06 0 18z" filter="url(#ew7da)" mask="url(&quot;#ew7db&quot;)"/><path fill="url(#ew7dc)" d="M18 0c9.941 0 18 8.06 18 18s-8.059 18-18 18S0 27.94 0 18 8.059 0 18 0z"/><path fill="#fff" fill-opacity=".1" d="M-10 46v-56h56v56zM0 18c0 9.94 8.059 18 18 18s18-8.06 18-18S27.941 0 18 0 0 8.06 0 18z" filter="url(#ew7da)" mask="url(&quot;#ew7db&quot;)"/><path fill="#fff" fill-opacity=".05" d="M-5 44V-8h46v52zm5-29c0 9.94 8.059 18 18 18s18-8.06 18-18S27.941-3 18-3 0 5.06 0 15z" filter="url(#ew7dd)" mask="url(&quot;#ew7de&quot;)"/><path fill="#fff" d="M26.242 21.598A4.252 4.252 0 0124.24 24.2l-1.51.866a4.287 4.287 0 01-3.272.426l-7.142-1.913c-.627-.169-1-.812-.833-1.437a1.754 1.754 0 011.896-1.276l3.186.343-3.78-6.519a1.487 1.487 0 01.545-2.036 1.506 1.506 0 012.052.545l.984 1.697c.126-.207.303-.383.527-.513a1.51 1.51 0 011.94.38 1.502 1.502 0 012.475-.144 1.505 1.505 0 012.586.019l2.013 3.88a4.27 4.27 0 01.336 3.079zm-.757-.203a3.5 3.5 0 00-.274-2.519l-2.005-3.864a.716.716 0 00-.966-.244.708.708 0 00-.265.975l.023.04a.389.389 0 01-.142.533.392.392 0 01-.53-.134h-.001v-.001h-.001v-.002h-.001l-.001-.001-.582-1.004a.718.718 0 00-.975-.261.712.712 0 00-.266.975l.58.997a.392.392 0 11-.678.391l-1.136-1.955a.716.716 0 00-1.24.712l1.134 1.955a.39.39 0 01-.142.534.393.393 0 01-.536-.143l-2.778-4.789a.708.708 0 00-.434-.332.708.708 0 00-.542.07.71.71 0 00-.265.974l4.167 7.182a.39.39 0 01-.38.584l-3.959-.423a.967.967 0 00-1.05.702.391.391 0 00.277.478l7.143 1.915c.91.243 1.86.12 2.676-.349l1.51-.866a3.48 3.48 0 001.639-2.13zm-8.249-7.56a.39.39 0 01-.45-.323 2.749 2.749 0 00-1.995-2.203 2.741 2.741 0 00-3.359 1.929 2.737 2.737 0 00.92 2.821.391.391 0 11-.496.605 3.524 3.524 0 01-1.181-3.63 3.525 3.525 0 014.318-2.479 3.533 3.533 0 012.567 2.832.388.388 0 01-.324.448z"/></svg>