<svg xmlns="http://www.w3.org/2000/svg" width="55" height="51"><path d="M54.88 37.727c-.14.3-.25.617-.422.894-.44.717-1.088 1.134-1.925 1.238-.243.032-.49.041-.736.041-15.963.003-31.926.003-47.89.002-1.462 0-2.42-.568-2.881-1.697-.065-.16-.134-.318-.201-.478V26.734c.244-1.103.874-2.015 1.465-2.95 2.923-4.623 5.85-9.247 8.75-13.887.67-1.072 1.557-1.622 2.83-1.567.72.03 1.442-.002 2.163.008.614.006 1.014.38 1.003.912-.012.512-.398.873-.986.882-.792.014-1.584.014-2.375 0-.428-.006-.742.158-.97.518L3.502 25.247c-.026.043-.035.096-.067.183h48.849c-.079-.147-.143-.282-.222-.408-2.973-4.72-5.953-9.434-8.914-14.157-.325-.52-.708-.776-1.333-.739-.7.042-1.406.017-2.11.008-.628-.008-1.026-.357-1.037-.887-.01-.546.4-.906 1.059-.911.756-.005 1.513.01 2.269-.005 1.143-.02 1.977.47 2.582 1.437 2.027 3.232 4.069 6.459 6.105 9.687 1.06 1.683 2.149 3.347 3.17 5.052.417.698.69 1.484 1.027 2.227v10.993zM2.63 30.87c0 2.18-.015 4.29.011 6.402.006.473.34.76.828.804.21.018.421.015.632.015h42.964c1.619 0 3.237.003 4.856-.003.848-.003 1.156-.307 1.158-1.137.003-1.868.002-3.733 0-5.601 0-.151-.023-.3-.037-.48H12.149c-.193 0-.388.008-.58-.01-.465-.041-.789-.368-.822-.813a.888.888 0 01.732-.953c.205-.036.42-.023.631-.023 13.424-.002 26.848-.002 40.272-.002h.654v-1.765H2.666v1.765h.623c1.232 0 2.463-.005 3.695.002.57.003.937.275 1.02.724.112.608-.293 1.067-.977 1.072-1.44.01-2.881.003-4.396.003zM26.807 3.39c-.312.325-.614.662-.937.976-.447.433-.98.45-1.354.061-.359-.372-.345-.888.071-1.315.85-.866 1.706-1.726 2.573-2.575.46-.45.926-.449 1.391.005.868.849 1.725 1.709 2.573 2.576.413.424.42.95.058 1.318-.378.384-.903.362-1.353-.077-.322-.315-.623-.649-.934-.974l-.14.064V16.88c0 .918-.278 1.35-.878 1.368-.618.022-.928-.435-.928-1.37V3.471a2.915 2.915 0 01-.142-.083zm-6.153.06v13.3c0 .142.003.282-.001.424-.018.662-.37 1.076-.91 1.076s-.888-.408-.889-1.08c-.004-4.387-.002-8.772-.002-13.161v-.71c-.42.412-.735.729-1.057 1.037-.466.449-.968.49-1.356.125-.41-.388-.39-.915.081-1.396.827-.838 1.66-1.675 2.502-2.5.488-.48.947-.485 1.43-.012a184.32 184.32 0 012.537 2.543c.43.438.447.986.067 1.355-.387.376-.898.343-1.354-.107-.313-.309-.604-.639-.905-.958-.047.022-.095.042-.143.065zm16.198-.05v13.447c0 .963-.273 1.398-.884 1.402-.627.01-.917-.447-.917-1.438V3.323c-.387.377-.69.674-.993.972-.51.495-1.033.543-1.43.134-.378-.39-.328-.915.143-1.39.804-.812 1.61-1.625 2.423-2.429.549-.544.988-.544 1.543.003.815.801 1.622 1.613 2.424 2.426.48.488.52.999.13 1.397-.386.395-.906.354-1.392-.112-.303-.291-.603-.587-.906-.882-.011-.01-.033-.01-.14-.042zm-4.497 9.412a.91.91 0 01-.886.922.875.875 0 01-.896-.844c-.026-.513.342-.927.844-.949.49-.022.922.38.938.87zm8.095.005a.882.882 0 01-.879.916.9.9 0 01-.904-.9.907.907 0 01.862-.892c.498-.02.91.372.921.876zm-17.117 5.432a.9.9 0 01-.873-.928c.014-.51.414-.879.93-.857a.891.891 0 01.859.886c-.003.488-.434.91-.916.9zm9.911-.917a.902.902 0 01-.885.919c-.483.003-.908-.427-.903-.912a.891.891 0 01.87-.877c.515-.014.91.36.918.87zm-8.11-4.483a.88.88 0 01-.911.885.912.912 0 01-.874-.882.912.912 0 01.897-.911c.501 0 .893.4.887.908zm-8.097-.015a.9.9 0 01-.904.899.877.877 0 01-.878-.863.886.886 0 01.867-.929.906.906 0 01.915.893zm5.4 9.911a.897.897 0 01-.892-.911.928.928 0 01.882-.877.893.893 0 01.904.896.865.865 0 01-.895.892zm-9.016-.875a.867.867 0 01-.912.874.883.883 0 01-.867-.874.907.907 0 01.893-.912.891.891 0 01.886.912zm29.73-.912c.49-.009.909.4.911.895a.888.888 0 01-.851.89.868.868 0 01-.928-.856.893.893 0 01.869-.929zm-27.925-3.63a.9.9 0 01-.88.921.901.901 0 01-.897-.905.873.873 0 01.855-.88.87.87 0 01.922.864zm25.251-.032c.028-.504.441-.863.955-.83.48.029.838.426.823.91-.016.496-.445.9-.93.873a.902.902 0 01-.848-.953zm-7.206 3.662a.92.92 0 01.887.923.895.895 0 01-.937.863.86.86 0 01-.848-.885c0-.503.406-.91.898-.9zm13.487 28.883a.898.898 0 01-.924.879.926.926 0 01-.866-.896.907.907 0 01.91-.896.878.878 0 01.88.913zm-36.927.88a.898.898 0 01-.885-.917.877.877 0 01.917-.876.907.907 0 01.872.882.927.927 0 01-.904.911zm9.032-.001a.924.924 0 01-.922-.893.91.91 0 01.854-.899.878.878 0 01.935.859.896.896 0 01-.867.933zm18.9-.891a.927.927 0 01-.924.89.895.895 0 01-.865-.934.877.877 0 01.883-.858c.495 0 .913.414.906.902zm-27.028-3.633c.009.483-.415.919-.897.92a.907.907 0 01-.891-.861.866.866 0 01.857-.929.894.894 0 01.93.87zm8.1.92a.93.93 0 01-.893-.923.892.892 0 01.933-.867c.49.014.853.39.856.879a.907.907 0 01-.897.911zm18.928-.894c-.007.485-.441.905-.923.893a.904.904 0 01-.866-.937.866.866 0 01.883-.853.897.897 0 01.906.897zm8.088-.897c.513-.01.904.37.907.882.002.497-.41.916-.898.91-.461-.007-.871-.409-.89-.875a.896.896 0 01.881-.917zm-17.11 4.471a.9.9 0 01-.878.924.9.9 0 01-.902-.902c0-.482.373-.871.853-.89a.883.883 0 01.927.868zM9.81 43.503a.899.899 0 01-.865-.936c.018-.508.422-.872.938-.847a.892.892 0 01.85.895.921.921 0 01-.923.888zm9.03.002a.921.921 0 01-.899-.913.89.89 0 01.925-.874.865.865 0 01.863.874.9.9 0 01-.889.913zm17.133-.955c.026-.506.44-.865.956-.829.476.033.85.443.832.913a.92.92 0 01-.942.868.9.9 0 01-.846-.952zm10.784.076a.901.901 0 01-.925.877.921.921 0 01-.864-.895.89.89 0 01.91-.89.869.869 0 01.88.908zm-18.884.877a.897.897 0 01-.91-.89.872.872 0 01.84-.893.871.871 0 01.935.849.898.898 0 01-.865.934zm-.028 3.613a.908.908 0 01-.883-.922.873.873 0 01.92-.868.873.873 0 01.858.879.907.907 0 01-.895.911z"/></svg>