<svg xmlns="http://www.w3.org/2000/svg" width="50" height="50"><defs><filter id="hpbsa" width="200%" height="200%" x="-50%" y="-50%"><feGaussianBlur in="SourceGraphic" result="FeGaussianBlur1092Out" stdDeviation="5 5"/></filter><filter id="hpbsd" width="200%" height="200%" x="-50%" y="-50%"><feGaussianBlur in="SourceGraphic" result="FeGaussianBlur1099Out" stdDeviation="2.5 2.5"/></filter><mask id="hpbsb"><path fill="#fff" d="M25 .001C38.807.001 50 11.193 50 25c0 13.808-11.193 25-25 25S0 38.808 0 25C0 11.193 11.193.001 25 .001z"/></mask><mask id="hpbse"><path fill="#fff" d="M25 .001C38.807.001 50 11.193 50 25c0 13.808-11.193 25-25 25S0 38.808 0 25C0 11.193 11.193.001 25 .001z"/></mask><linearGradient id="hpbsc" x1="25" x2="25" y1="50" y2="0" gradientUnits="userSpaceOnUse"><stop offset="0" stop-color="#427fff"/><stop offset="1" stop-color="#739fff"/></linearGradient></defs><path fill="#fff" fill-opacity=".1" d="M-10 60v-70h70v70zM0 25c0 13.808 11.193 25 25 25s25-11.192 25-25C50 11.194 38.807.001 25 .001S0 11.193 0 25z" filter="url(#hpbsa)" mask="url(&quot;#hpbsb&quot;)"/><path fill="url(#hpbsc)" d="M25 .001C38.807.001 50 11.193 50 25c0 13.808-11.193 25-25 25S0 38.808 0 25C0 11.193 11.193.001 25 .001z"/><path fill="#fff" fill-opacity=".1" d="M-10 60v-70h70v70zM0 25c0 13.808 11.193 25 25 25s25-11.192 25-25C50 11.194 38.807.001 25 .001S0 11.193 0 25z" filter="url(#hpbsa)" mask="url(&quot;#hpbsb&quot;)"/><path fill="#fff" fill-opacity=".05" d="M-5 58V-8h60v66zm5-36c0 13.808 11.193 25 25 25s25-11.192 25-25C50 8.194 38.807-2.999 25-2.999S0 8.193 0 22z" filter="url(#hpbsd)" mask="url(&quot;#hpbse&quot;)"/><path fill="#fff" d="M18.59 29.834c1.13-2.145.949-3.706.949-3.706s-2.162.036-3.678-1.405c-1.795-2.448-.648-5.369-.648-5.369s1.204-2.67 4.436-2.66c2.503-.227 4.028 2.094 4.028 2.094s1.762 2.356 0 7.527c-2.401 6.017-6.771 8.277-6.771 8.277l-1.317-1.502s2.083-1.089 3-3.256zm10.345 0c1.13-2.145.949-3.706.949-3.706s-2.162.036-3.678-1.405c-1.795-2.448-.648-5.369-.648-5.369s1.204-2.67 4.436-2.66c2.503-.227 4.028 2.094 4.028 2.094s1.762 2.356 0 7.527c-2.401 6.017-6.771 8.277-6.771 8.277l-1.317-1.502s2.083-1.089 3.001-3.256z"/></svg>