<svg id="logo" xmlns="http://www.w3.org/2000/svg" width="277.562" height="53.563" viewBox="0 0 277.562 53.563">
  <defs>
    <style>
      .cls-1, .cls-2, .cls-3 {
        fill-rule: evenodd;
      }

      .cls-2 {
        fill: #fca368;
      }

      .cls-3 {
        fill: #171717;
      }
    </style>
  </defs>
  <path id="Первая_мебельная_компания" data-name="Первая мебельная компания" class="cls-1" d="M456.1,27.649a4.08,4.08,0,0,1,.215,1.653v9.543a3.632,3.632,0,0,1-.355,1.954,2.694,2.694,0,0,1-1.515.837v0.086h5.6V41.635a2.643,2.643,0,0,1-1.515-.838,3.686,3.686,0,0,1-.365-1.955V29.421a3.686,3.686,0,0,1,.365-1.955,2.644,2.644,0,0,1,1.515-.838V26.543H444.113v0.086a2.629,2.629,0,0,1,1.5.838,3.675,3.675,0,0,1,.366,1.955v9.421a3.674,3.674,0,0,1-.366,1.955,2.627,2.627,0,0,1-1.5.838v0.086H449.7V41.635a2.625,2.625,0,0,1-1.5-.837,3.669,3.669,0,0,1-.366-1.954V29.3a4.08,4.08,0,0,1,.215-1.653,0.821,0.821,0,0,1,.795-0.4h6.467a0.837,0.837,0,0,1,.795.4h0Zm13.789,6.929-5.64.193a5.577,5.577,0,0,1,1.066-3,2.6,2.6,0,0,1,2.077-1.053q2.486,0,2.5,3.857h0Zm1.783,0.634c0.014-.169.022-0.355,0.022-0.559q0-4.415-4.055-4.415a4.937,4.937,0,0,0-3.721,1.712,6.177,6.177,0,0,0-1.57,4.361,5.847,5.847,0,0,0,1.409,4.164,4.714,4.714,0,0,0,3.57,1.515,4.531,4.531,0,0,0,2.785-.849,6.092,6.092,0,0,0,1.667-1.751l-0.129-.086a5.179,5.179,0,0,1-3.386,1.3,3.715,3.715,0,0,1-2.949-1.289A5.172,5.172,0,0,1,464.2,35.8V35.212h7.477ZM483,36.157a5.77,5.77,0,0,1-1.287,3.889,3.935,3.935,0,0,1-3.089,1.5,5.337,5.337,0,0,1-2.466-.623V32.107a4.811,4.811,0,0,1,2.852-.881,3.709,3.709,0,0,1,2.8,1.278A5.166,5.166,0,0,1,483,36.157h0Zm-6.842,5.629a12.038,12.038,0,0,0,2.252.2,6.831,6.831,0,0,0,4.257-1.542,5.531,5.531,0,0,0,1.567-2.013,6.48,6.48,0,0,0,.614-2.848,5.424,5.424,0,0,0-1.381-3.894,4.521,4.521,0,0,0-3.416-1.456,5.377,5.377,0,0,0-2.306.5,5.107,5.107,0,0,0-1.587,1.056V30.238h-0.087a11.448,11.448,0,0,1-3.587.9v0.088a2.666,2.666,0,0,1,1.559.858,5.466,5.466,0,0,1,.31,2.349v9.622a3.758,3.758,0,0,1-.31,1.834,2.277,2.277,0,0,1-1.291.8v0.086h5.221V46.695a2.423,2.423,0,0,1-1.5-.838,4.958,4.958,0,0,1-.32-2.224V41.786Zm16.408-.064a6.168,6.168,0,0,0,3.252-.773,2.688,2.688,0,0,0,1.268-2.482,2.243,2.243,0,0,0-.862-1.784,4.183,4.183,0,0,0-2.07-.919q2.309-.782,2.309-2.5a2.281,2.281,0,0,0-1.05-2.14,5.973,5.973,0,0,0-3.01-.621h-5.243v0.086a2.238,2.238,0,0,1,1.3.827,4.688,4.688,0,0,1,.3,2.073v5.232a4.521,4.521,0,0,1-.3,2.084,2.237,2.237,0,0,1-1.3.827v0.086h5.406ZM490.5,31.054h1.547q2.568,0,2.568,2.213a2.151,2.151,0,0,1-2.46,2.406H490.5V31.054Zm0,5.167H492.3a3.249,3.249,0,0,1,2.1.666,2.2,2.2,0,0,1,.828,1.848,2.3,2.3,0,0,1-.709,1.826,2.858,2.858,0,0,1-1.977.612H490.5V36.221Zm11.463,0.469a3.909,3.909,0,0,1,2.492-.738,7.464,7.464,0,0,1,1.193.118v4.2a4.142,4.142,0,0,1-2.153.61,2.724,2.724,0,0,1-1.8-.556,2.126,2.126,0,0,1-.668-1.733A2.317,2.317,0,0,1,501.96,36.691Zm3.685-2.556v1.377a9.885,9.885,0,0,0-4.942,1.132,2.878,2.878,0,0,0-1.482,2.41,2.716,2.716,0,0,0,.881,2.174,3.1,3.1,0,0,0,2.094.762,5.4,5.4,0,0,0,3.47-1.545,1.491,1.491,0,0,0,.408,1.078,1.3,1.3,0,0,0,.935.37,5.3,5.3,0,0,0,1.386-.237q0.837-.248,1.149-0.378V41.191a5.133,5.133,0,0,1-1.267-.259,1.674,1.674,0,0,1-.892-1.8V33.3a2.879,2.879,0,0,0-.891-2.267,3.583,3.583,0,0,0-2.469-.795,6.292,6.292,0,0,0-3.029.784,2.213,2.213,0,0,0-1.442,1.815,1.027,1.027,0,0,0,.338.784,1.1,1.1,0,0,0,.753.29,1.14,1.14,0,0,0,.73-0.269,0.923,0.923,0,0,0,.317-0.72,1.191,1.191,0,0,0-1.236-1.149,3.666,3.666,0,0,1,2.525-.827q2.664,0,2.664,3.188h0Zm8.23,1.377a2.184,2.184,0,0,1-.754-1.783,2.829,2.829,0,0,1,.647-1.912,2.324,2.324,0,0,1,1.841-.763h1.616v5.06h-1.4a3.031,3.031,0,0,1-1.95-.6h0ZM512.338,31.3a2.648,2.648,0,0,0-1.064,2.256,2.262,2.262,0,0,0,.768,1.783,4.335,4.335,0,0,0,1.93.945l-2.256,3.062a8.014,8.014,0,0,1-1.622,1.74,3.359,3.359,0,0,1-1.5.548v0.086h1.3a6.029,6.029,0,0,0,2.288-.257,5.734,5.734,0,0,0,1.386-1.69l2.024-3.113h1.637v2.075a4.563,4.563,0,0,1-.31,2.075,2.217,2.217,0,0,1-1.291.824v0.086h4.942V41.635a2.266,2.266,0,0,1-1.292-.838,4.584,4.584,0,0,1-.309-2.073V33.493a4.584,4.584,0,0,1,.309-2.073,2.224,2.224,0,0,1,1.292-.827V30.506h-5.173A5.039,5.039,0,0,0,512.338,31.3ZM541.6,41.635a1.922,1.922,0,0,1-1.182-.9,8.932,8.932,0,0,1-.354-2.493l-0.336-5.1q-0.021-.268-0.021-0.9a1.924,1.924,0,0,1,.269-1.031,1.764,1.764,0,0,1,1.074-.612V30.506H537.9l-3.7,9.034-3.784-9.034h-3.191l-0.043.086a1.6,1.6,0,0,1,1.342,1.483q0,0.473-.043,1.311l-0.38,4.834a7.9,7.9,0,0,1-.473,2.428,1.707,1.707,0,0,1-1.246.988v0.086h3.941V41.635a1.686,1.686,0,0,1-1.365-1.773q0-.6.043-1.4l0.355-6.273,3.975,9.636H534l3.954-9.593,0.379,6.23q0.065,0.934.065,1.622a1.612,1.612,0,0,1-.237.988,2.241,2.241,0,0,1-1.053.559v0.086H541.6V41.635Zm9.294-7.058-5.64.193a5.577,5.577,0,0,1,1.066-3,2.6,2.6,0,0,1,2.077-1.053q2.486,0,2.5,3.857h0Zm1.783,0.634c0.014-.169.022-0.355,0.022-0.559q0-4.415-4.055-4.415a4.937,4.937,0,0,0-3.721,1.712,6.177,6.177,0,0,0-1.57,4.361,5.847,5.847,0,0,0,1.409,4.164,4.714,4.714,0,0,0,3.57,1.515,4.531,4.531,0,0,0,2.785-.849,6.092,6.092,0,0,0,1.667-1.751l-0.129-.086a5.179,5.179,0,0,1-3.386,1.3,3.715,3.715,0,0,1-2.949-1.289A5.172,5.172,0,0,1,545.2,35.8V35.212h7.477Zm5.274,5.486a6.3,6.3,0,0,1-1.568-4.605,7.14,7.14,0,0,1,.978-3.839A2.969,2.969,0,0,1,560,30.678a3.018,3.018,0,0,1,2.664,1.575,7.018,7.018,0,0,1,.978,3.839,6.313,6.313,0,0,1-1.579,4.605,2.768,2.768,0,0,1-2.052.852,2.8,2.8,0,0,1-2.063-.852h0Zm-2.717-7.3-0.108-.043a10.131,10.131,0,0,1,1.2-4.213,3.145,3.145,0,0,1,2.761-1.383c0.007-.007.251-0.014,0.73-0.021s0.951-.018,1.417-0.032a5.141,5.141,0,0,0,1.427-.258q1.287-.483,1.964-2.707l-0.107-.064A3.171,3.171,0,0,1,562.7,25.9q-0.418.054-3.48,0.183a3.478,3.478,0,0,0-2.342,1.051,6.385,6.385,0,0,0-1.525,2.519,18.173,18.173,0,0,0-1.021,5.989,6.241,6.241,0,0,0,1.7,4.691,5.577,5.577,0,0,0,3.992,1.66,5.413,5.413,0,0,0,3.993-1.73,5.784,5.784,0,0,0,1.685-4.19,5.59,5.59,0,0,0-1.684-4.146,5.456,5.456,0,0,0-3.978-1.687q-2.933,0-4.8,3.158h0Zm19.66,1.182-5.64.193a5.577,5.577,0,0,1,1.066-3,2.6,2.6,0,0,1,2.077-1.053q2.486,0,2.5,3.857h0Zm1.783,0.634c0.014-.169.022-0.355,0.022-0.559q0-4.415-4.055-4.415a4.937,4.937,0,0,0-3.721,1.712,6.177,6.177,0,0,0-1.57,4.361,5.847,5.847,0,0,0,1.409,4.164,4.714,4.714,0,0,0,3.57,1.515,4.531,4.531,0,0,0,2.785-.849,6.092,6.092,0,0,0,1.667-1.751l-0.129-.086a5.179,5.179,0,0,1-3.386,1.3,3.715,3.715,0,0,1-2.949-1.289A5.172,5.172,0,0,1,569.2,35.8V35.212h7.477Zm9.647-3.642a5.521,5.521,0,0,1,.214,1.923v5.232a4.821,4.821,0,0,1-.3,2.095,2.091,2.091,0,0,1-1.3.816v0.086h4.941V41.635a2.062,2.062,0,0,1-1.289-.816,4.7,4.7,0,0,1-.311-2.095V33.493a4.707,4.707,0,0,1,.3-2.073,2.191,2.191,0,0,1,1.3-.827V30.506H579.617v0.086q1.966,0.612,1.966,2.17a25.155,25.155,0,0,1-.447,4.684,5.363,5.363,0,0,1-1.248,3.04,1.833,1.833,0,0,0-1.449-.9,0.836,0.836,0,0,0-.682.355,1.3,1.3,0,0,0-.277.827,1.127,1.127,0,0,0,.343.827,1.294,1.294,0,0,0,.956.344,2.073,2.073,0,0,0,1.666-.988,7.426,7.426,0,0,0,1.138-2.61,29.248,29.248,0,0,0,.806-7.24h3.075a0.858,0.858,0,0,1,.857.473h0Zm13.391,9.273a2.9,2.9,0,0,0,1.338-2.591q-0.01-3.223-4.672-3.223a12.342,12.342,0,0,0-1.924.182v-1.7a4.1,4.1,0,0,1,.355-2.072,2.566,2.566,0,0,1,1.493-.842V30.506h-5.189v0.086a2.186,2.186,0,0,1,1.3.849,4.7,4.7,0,0,1,.3,2.052v5.232a4.526,4.526,0,0,1-.3,2.073,2.21,2.21,0,0,1-1.3.838v0.086h5.194A6.094,6.094,0,0,0,599.712,40.843Zm-1.186-.39a2.693,2.693,0,0,1-2.246.87,2.428,2.428,0,0,1-1.428-.29,1.109,1.109,0,0,1-.4-0.945V35.695a5.768,5.768,0,0,1,1.7-.226,3.171,3.171,0,0,1,2.266.752,2.657,2.657,0,0,1,.784,2.052,3.445,3.445,0,0,1-.676,2.181h0Zm12.407,0.365a2.072,2.072,0,0,1-1.3.816v0.086h4.952V41.635a2.133,2.133,0,0,1-1.3-.816,4.865,4.865,0,0,1-.3-2.095V33.493a4.491,4.491,0,0,1,.3-2.073,2.238,2.238,0,0,1,1.3-.827V30.506h-4.952v0.086a2.238,2.238,0,0,1,1.3.827,4.562,4.562,0,0,1,.311,2.073V35.63h-5.833V33.493a4.544,4.544,0,0,1,.312-2.073,2.235,2.235,0,0,1,1.3-.827V30.506h-4.952v0.086a2.235,2.235,0,0,1,1.3.827,4.688,4.688,0,0,1,.3,2.073v5.232a4.6,4.6,0,0,1-.3,2.095,2.13,2.13,0,0,1-1.3.816v0.086h4.952V41.635a2.069,2.069,0,0,1-1.3-.816,4.7,4.7,0,0,1-.312-2.095v-2.46h5.833v2.46A4.715,4.715,0,0,1,610.933,40.819Zm8.027-4.128a3.909,3.909,0,0,1,2.492-.738,7.464,7.464,0,0,1,1.193.118v4.2a4.142,4.142,0,0,1-2.153.61,2.724,2.724,0,0,1-1.8-.556,2.126,2.126,0,0,1-.668-1.733A2.317,2.317,0,0,1,618.96,36.691Zm3.685-2.556v1.377a9.885,9.885,0,0,0-4.942,1.132,2.878,2.878,0,0,0-1.482,2.41,2.716,2.716,0,0,0,.881,2.174,3.1,3.1,0,0,0,2.094.762,5.4,5.4,0,0,0,3.47-1.545,1.491,1.491,0,0,0,.408,1.078,1.3,1.3,0,0,0,.935.37,5.3,5.3,0,0,0,1.386-.237q0.837-.248,1.149-0.378V41.191a5.133,5.133,0,0,1-1.267-.259,1.674,1.674,0,0,1-.892-1.8V33.3a2.879,2.879,0,0,0-.891-2.267,3.583,3.583,0,0,0-2.469-.795,6.292,6.292,0,0,0-3.029.784,2.213,2.213,0,0,0-1.442,1.815,1.027,1.027,0,0,0,.338.784,1.1,1.1,0,0,0,.753.29,1.14,1.14,0,0,0,.73-0.269,0.923,0.923,0,0,0,.317-0.72,1.191,1.191,0,0,0-1.236-1.149,3.666,3.666,0,0,1,2.525-.827q2.664,0,2.664,3.188h0Zm8.23,1.377a2.184,2.184,0,0,1-.754-1.783,2.829,2.829,0,0,1,.647-1.912,2.324,2.324,0,0,1,1.841-.763h1.616v5.06h-1.4a3.031,3.031,0,0,1-1.95-.6h0ZM629.338,31.3a2.648,2.648,0,0,0-1.064,2.256,2.262,2.262,0,0,0,.768,1.783,4.335,4.335,0,0,0,1.93.945l-2.256,3.062a8.014,8.014,0,0,1-1.622,1.74,3.359,3.359,0,0,1-1.5.548v0.086h1.3a6.029,6.029,0,0,0,2.288-.257,5.734,5.734,0,0,0,1.386-1.69l2.024-3.113h1.637v2.075a4.563,4.563,0,0,1-.31,2.075,2.217,2.217,0,0,1-1.291.824v0.086h4.942V41.635a2.266,2.266,0,0,1-1.292-.838,4.584,4.584,0,0,1-.309-2.073V33.493a4.584,4.584,0,0,1,.309-2.073,2.224,2.224,0,0,1,1.292-.827V30.506h-5.173A5.039,5.039,0,0,0,629.338,31.3ZM445.392,66.819a2.133,2.133,0,0,1-1.3.816v0.086h4.952V67.635a2.072,2.072,0,0,1-1.3-.816,4.715,4.715,0,0,1-.311-2.095V61.888h0.8a2.507,2.507,0,0,1,1.847.548,7.675,7.675,0,0,1,1.182,2.621l0.183,0.548a3.8,3.8,0,0,0,.89,1.74,2.821,2.821,0,0,0,1.705.376h1.848V67.635a2.648,2.648,0,0,1-1.526-.657,5.7,5.7,0,0,1-1-1.905L452.954,64a4.478,4.478,0,0,0-1.278-1.873,3.1,3.1,0,0,0-1.73-.624V61.414a3.177,3.177,0,0,0,1.494-2q0.828-2.562,1.741-2.562a2.11,2.11,0,0,0-.2.891,1.077,1.077,0,0,0,.312.771,1.025,1.025,0,0,0,.771.326,0.954,0.954,0,0,0,.762-0.344,1.3,1.3,0,0,0,.292-0.87,1.36,1.36,0,0,0-.385-0.945,1.481,1.481,0,0,0-1.175-.419,1.927,1.927,0,0,0-1.419.658,5.757,5.757,0,0,0-1.092,2.147q-0.772,2.427-2.6,2.427h-1.01V59.506a4.6,4.6,0,0,1,.311-2.082,2.237,2.237,0,0,1,1.3-.831V56.506h-4.952v0.086a2.238,2.238,0,0,1,1.3.827,4.7,4.7,0,0,1,.3,2.073v5.231a4.861,4.861,0,0,1-.3,2.095h0Zm13.371-.121a6.258,6.258,0,0,1-1.576-4.605,7.148,7.148,0,0,1,.976-3.839,3.016,3.016,0,0,1,5.3,0,7.157,7.157,0,0,1,.976,3.839,6.261,6.261,0,0,1-1.566,4.605,2.8,2.8,0,0,1-2.06.852,2.762,2.762,0,0,1-2.049-.852h0Zm7.726-4.638a5.619,5.619,0,0,0-1.685-4.141,5.566,5.566,0,0,0-7.978.005,5.63,5.63,0,0,0-1.691,4.146,5.773,5.773,0,0,0,1.659,4.19,5.52,5.52,0,0,0,8.031-.006A5.838,5.838,0,0,0,466.489,62.06ZM482.6,67.635a1.922,1.922,0,0,1-1.182-.9,8.932,8.932,0,0,1-.354-2.493l-0.336-5.1q-0.021-.268-0.021-0.9a1.924,1.924,0,0,1,.269-1.031,1.764,1.764,0,0,1,1.074-.612V56.506H478.9l-3.7,9.034-3.784-9.034h-3.191l-0.043.086a1.6,1.6,0,0,1,1.342,1.483q0,0.473-.043,1.311l-0.38,4.834a7.9,7.9,0,0,1-.473,2.428,1.707,1.707,0,0,1-1.246.988v0.086h3.941V67.635a1.686,1.686,0,0,1-1.365-1.773q0-.6.043-1.4l0.355-6.273,3.975,9.636H475l3.954-9.593,0.379,6.23q0.065,0.934.065,1.622a1.612,1.612,0,0,1-.237.988,2.241,2.241,0,0,1-1.053.559v0.086H482.6V67.635Zm10.252-.816a2.056,2.056,0,0,1-1.291.816v0.086H496.5V67.635a2.056,2.056,0,0,1-1.291-.816,4.738,4.738,0,0,1-.309-2.095V59.493a4.584,4.584,0,0,1,.309-2.073,2.221,2.221,0,0,1,1.291-.827V56.506H484.071v0.086a2.235,2.235,0,0,1,1.3.827,4.688,4.688,0,0,1,.3,2.073v5.231a4.6,4.6,0,0,1-.3,2.095,2.13,2.13,0,0,1-1.3.816v0.086h4.952V67.635a2.069,2.069,0,0,1-1.3-.816,4.7,4.7,0,0,1-.312-2.095V59.493a5.421,5.421,0,0,1,.2-1.923,0.84,0.84,0,0,1,.849-0.473H492.1a0.841,0.841,0,0,1,.849.473,5.521,5.521,0,0,1,.214,1.923v5.231A4.738,4.738,0,0,1,492.849,66.819Zm8.111-4.128a3.909,3.909,0,0,1,2.492-.738,7.464,7.464,0,0,1,1.193.118v4.2a4.142,4.142,0,0,1-2.153.61,2.724,2.724,0,0,1-1.8-.556,2.126,2.126,0,0,1-.668-1.733A2.317,2.317,0,0,1,500.96,62.691Zm3.685-2.556v1.377a9.885,9.885,0,0,0-4.942,1.132,2.878,2.878,0,0,0-1.482,2.411,2.716,2.716,0,0,0,.881,2.174,3.1,3.1,0,0,0,2.094.762,5.4,5.4,0,0,0,3.47-1.545,1.491,1.491,0,0,0,.408,1.078,1.3,1.3,0,0,0,.935.37,5.3,5.3,0,0,0,1.386-.237q0.837-.248,1.149-0.378V67.191a5.133,5.133,0,0,1-1.267-.259,1.674,1.674,0,0,1-.892-1.8V59.3a2.879,2.879,0,0,0-.891-2.267,3.583,3.583,0,0,0-2.469-.795,6.292,6.292,0,0,0-3.029.784,2.213,2.213,0,0,0-1.442,1.815,1.027,1.027,0,0,0,.338.784,1.1,1.1,0,0,0,.753.29,1.14,1.14,0,0,0,.73-0.269,0.923,0.923,0,0,0,.317-0.72,1.191,1.191,0,0,0-1.236-1.149,3.666,3.666,0,0,1,2.525-.827q2.664,0,2.664,3.188h0Zm13.288,6.684a2.072,2.072,0,0,1-1.3.816v0.086h4.952V67.635a2.133,2.133,0,0,1-1.3-.816,4.865,4.865,0,0,1-.3-2.095V59.493a4.491,4.491,0,0,1,.3-2.073,2.238,2.238,0,0,1,1.3-.827V56.506h-4.952v0.086a2.238,2.238,0,0,1,1.3.827,4.562,4.562,0,0,1,.311,2.073V61.63h-5.833V59.493a4.544,4.544,0,0,1,.312-2.073,2.235,2.235,0,0,1,1.3-.827V56.506h-4.952v0.086a2.235,2.235,0,0,1,1.3.827,4.688,4.688,0,0,1,.3,2.073v5.231a4.6,4.6,0,0,1-.3,2.095,2.13,2.13,0,0,1-1.3.816v0.086h4.952V67.635a2.069,2.069,0,0,1-1.3-.816,4.7,4.7,0,0,1-.312-2.095v-2.46h5.833v2.46A4.715,4.715,0,0,1,517.933,66.819Zm14.462,0a2.072,2.072,0,0,1-1.3.816v0.086h4.952V67.635a2.133,2.133,0,0,1-1.3-.816,4.861,4.861,0,0,1-.3-2.095V59.493a4.487,4.487,0,0,1,.3-2.073,2.238,2.238,0,0,1,1.3-.827V56.506H531.1v0.086a2.906,2.906,0,0,1,1.139.537,1.734,1.734,0,0,1,.408,1.085l-6.231,7.111V59.493a4.544,4.544,0,0,1,.312-2.073,2.235,2.235,0,0,1,1.3-.827V56.506h-4.952v0.086a2.235,2.235,0,0,1,1.3.827,4.688,4.688,0,0,1,.3,2.073v5.231a4.6,4.6,0,0,1-.3,2.095,2.13,2.13,0,0,1-1.3.816v0.086h4.952V67.635a2.908,2.908,0,0,1-1.107-.5,1.463,1.463,0,0,1-.419-0.945l6.209-7.09v5.629A4.715,4.715,0,0,1,532.4,66.819Zm9.48-5.307a2.184,2.184,0,0,1-.754-1.783,2.829,2.829,0,0,1,.647-1.912,2.324,2.324,0,0,1,1.841-.763h1.616v5.06h-1.4a3.031,3.031,0,0,1-1.95-.6h0ZM540.338,57.3a2.648,2.648,0,0,0-1.064,2.256,2.262,2.262,0,0,0,.768,1.783,4.335,4.335,0,0,0,1.93.945l-2.256,3.062a8.014,8.014,0,0,1-1.622,1.74,3.359,3.359,0,0,1-1.5.548v0.086h1.3a6.029,6.029,0,0,0,2.288-.257,5.734,5.734,0,0,0,1.386-1.69l2.024-3.113h1.637v2.075a4.563,4.563,0,0,1-.31,2.075,2.217,2.217,0,0,1-1.291.824v0.086h4.942V67.635a2.266,2.266,0,0,1-1.292-.838,4.584,4.584,0,0,1-.309-2.073V59.493a4.584,4.584,0,0,1,.309-2.073,2.224,2.224,0,0,1,1.292-.827V56.506h-5.173A5.039,5.039,0,0,0,540.338,57.3Z" transform="translate(-360 -14.875)"/>
  <path id="Эллипс_1" data-name="Эллипс 1" class="cls-2" d="M410.638,14.885a23.1,23.1,0,1,1-23.1,23.108A23.105,23.105,0,0,1,410.638,14.885Z" transform="translate(-360 -14.875)"/>
  <path id="Фигура_1" data-name="Фигура 1" class="cls-3" d="M370.806,62.952c-0.292,1.128-.553,2.242-0.872,3.342a2.836,2.836,0,1,1-5.484-1.447c0.478-2.056.958-4.114,1.462-6.168a0.638,0.638,0,0,0-.221-0.737,6.433,6.433,0,0,1-2.176-4.911c0-2.367-.009-4.728,0-7.09a0.748,0.748,0,0,0-.462-0.807,5.544,5.544,0,0,1,1.99-10.476,0.618,0.618,0,0,0,.678-0.692,9.547,9.547,0,0,1,9.559-8.784q15.54-.021,31.079,0a9.606,9.606,0,0,1,9.728,9.1c0.007,0.1.021,0.2,0.034,0.322,0.494,0.056.985,0.07,1.458,0.171A5.516,5.516,0,0,1,419.023,45.1a0.793,0.793,0,0,0-.509.84c0.017,2.3,0,4.6.012,6.9a6.336,6.336,0,0,1-2.233,5.124,0.674,0.674,0,0,0-.16.816c0.463,1.893.959,3.78,1.376,5.68a4.675,4.675,0,0,1,.053,1.876,2.685,2.685,0,0,1-2.618,2.112,2.817,2.817,0,0,1-2.807-1.977c-0.283-.943-0.525-1.9-0.727-2.862a0.725,0.725,0,0,0-.861-0.678c-5.723.023-11.446,0.016-17.17,0.016H370.806ZM410.9,47.8c0-.372,0-0.553,0-0.732,0.011-2.4.039-4.808,0.03-7.212a4.864,4.864,0,0,1,2.552-4.4c1.037-.637,1.065-0.659.862-1.857-0.041-.24-0.091-0.481-0.152-0.721a7.888,7.888,0,0,0-7.87-6.007q-15.446-.014-30.889,0c-0.246,0-.492.011-0.738,0.023a7.947,7.947,0,0,0-7.344,7.47,0.713,0.713,0,0,0,.454.8,5.506,5.506,0,0,1,3.283,5.383c-0.017,2.156,0,4.316,0,6.472v0.8a6.849,6.849,0,0,1,4.993-2.12c3.056-.009,6.112-0.022,9.168,0a6.456,6.456,0,0,1,5.448,2.845c0.089,0.126.194,0.238,0.323,0.4,1.591-2.5,3.892-3.351,6.7-3.267,2.644,0.083,5.292.008,7.937,0.026a10.79,10.79,0,0,1,1.833.17A6.377,6.377,0,0,1,410.9,47.8ZM390.986,57.939c6.79,0,13.582-.053,20.371.022a5.093,5.093,0,0,0,5.4-5.372c-0.106-2.46-.023-4.926-0.022-7.4a1.08,1.08,0,0,1,.975-1.379,3.832,3.832,0,1,0-5.159-3.577c-0.008,4.066,0,8.139,0,12.207,0,1.025-.2,1.234-1.211,1.234q-20.34,0-40.682,0c-1.024,0-1.228-.2-1.229-1.217q0-6.13,0-12.267a3.779,3.779,0,0,0-.621-2.214,3.971,3.971,0,0,0-4.344-1.542,3.856,3.856,0,0,0-.149,7.349,1.031,1.031,0,0,1,.924,1.29c0,2.568-.012,5.138.011,7.7a6.284,6.284,0,0,0,.215,1.7,4.879,4.879,0,0,0,4.968,3.451Q380.708,57.946,390.986,57.939Zm-0.9-5.944a4.7,4.7,0,0,0-4.587-4.607q-4.859-.061-9.719,0a4.755,4.755,0,0,0-4.494,3.643c-0.074.3-.1,0.618-0.151,0.964h18.951Zm1.8,0.031h18.942a4.6,4.6,0,0,0-4.541-4.585q-4.827-.1-9.659,0A4.722,4.722,0,0,0,391.881,52.026Zm18.97,7.673H371.043V61.19h39.808V59.7Zm3.58-.467c-0.491.128-.935,0.28-1.392,0.352a0.441,0.441,0,0,0-.433.525c-0.063,2.049.691,3.935,1.151,5.881a1.139,1.139,0,0,0,1.348.7,1.192,1.192,0,0,0,.85-1.327c-0.049-.3-0.149-0.6-0.223-0.893Q415.081,61.857,414.431,59.232Zm-46.84-.089c-0.144.6-.275,1.156-0.408,1.709-0.348,1.451-.707,2.9-1.041,4.356a1.152,1.152,0,0,0,.746,1.48,1.11,1.11,0,0,0,1.409-.765,21.513,21.513,0,0,0,1-5.532c-0.024-.62-0.124-0.954-0.8-0.971A3.915,3.915,0,0,1,367.591,59.143Zm10.475-20.289a1.231,1.231,0,0,1-1.2,1.223,1.268,1.268,0,0,1-1.251-1.249,1.235,1.235,0,0,1,1.275-1.206A1.2,1.2,0,0,1,378.066,38.854Zm16.479-.014a1.2,1.2,0,0,1,1.2-1.218A1.238,1.238,0,0,1,397,38.813a1.272,1.272,0,0,1-1.251,1.264A1.238,1.238,0,0,1,394.545,38.84Zm-11.555-5.49a1.218,1.218,0,0,1-1.217,1.2,1.229,1.229,0,1,1,0-2.459A1.214,1.214,0,0,1,382.99,33.349Zm18.961,0.028a1.22,1.22,0,0,1-1.244,1.17,1.23,1.23,0,1,1,.055-2.46A1.223,1.223,0,0,1,401.951,33.377Zm-14.419,5.476a1.227,1.227,0,1,1-2.453-.025A1.227,1.227,0,0,1,387.532,38.854Zm4.959-5.529a1.214,1.214,0,0,1-1.2,1.224,1.231,1.231,0,1,1,.014-2.462A1.208,1.208,0,0,1,392.491,33.325Zm11.514,5.52a1.192,1.192,0,0,1,1.2-1.223,1.225,1.225,0,0,1,1.242,1.19,1.255,1.255,0,0,1-1.24,1.265A1.225,1.225,0,0,1,404.005,38.844Z" transform="translate(-360 -14.875)"/>
</svg>
